<?xml version="1.0" encoding="utf-8"?>
<!-- Generator: Adobe Illustrator 27.5.0, SVG Export Plug-In . SVG Version: 6.00 Build 0)  -->
<svg version="1.1" xmlns="http://www.w3.org/2000/svg" xmlns:xlink="http://www.w3.org/1999/xlink" x="0px" y="0px"
	 viewBox="0 0 499.999 500" style="enable-background:new 0 0 499.999 500;" xml:space="preserve">
<g id="BACKGROUND">
	<rect x="-0.001" y="0.001" style="fill-rule:evenodd;clip-rule:evenodd;fill:#FFFFFF;" width="500" height="500"/>
</g>
<g id="OBJECTS">
	<g>
		<g>
			<g>
				<path style="fill:#E8ECEB;" d="M211.168,420.082c-52.644-1.012-75.802-0.219-121.015,0.5
					c-15.723,0.25-62.341-4.383-66.611,10.134c-6.561,22.364,48.154,19.5,67.979,19.78c81.363,1.152,271.232,1.765,356.957,0
					c15.572-0.318,36.435-7.096,31.887-18.376c-5.205-12.253-50.365-11.336-64.723-11.538
					C347.269,419.615,279.541,421.049,211.168,420.082"/>
			</g>
			<g>
				<g>
					<g>
						<g>
							<g>
								<g>
									<path style="fill:#FAB69D;" d="M333.664,413.179c-0.104-3.896,0.621-11.212,0.834-19.802
										c-5.525,0.738-11.055,1.393-16.619,1.68c1.645,9.514,2.787,16.63,2.875,19.954c0,0-13.514,21.23-9.217,20.604
										c11.799-0.882,27.338-8.411,26.617-9.433L333.664,413.179z"/>
								</g>
								<g>
									<path style="fill:#FAB69D;" d="M298.804,414.242c0.229-3.891,1.574-11.118,2.518-19.659
										c-5.568,0.266-11.133,0.447-16.701,0.258c0.828,9.62,1.359,16.808,1.164,20.127c0,0-15.273,20.002-10.939,19.743
										c11.832,0.126,27.955-6.052,27.324-7.131L298.804,414.242z"/>
								</g>
							</g>
							<g>
								<g>
									<g>
										<path style="fill:#498B90;" d="M325.162,434.018c-0.025-4.193-4.59-10.621-8.922-10.425
											c-3.834,0.153-9.228,3.585-10.908,7.4c-3.363,7.63,7.236,6.374,11.313,5.151"/>
									</g>
									<g>
										<g>
											<path style="fill:#498B90;" d="M306.384,436.402c5.167,2.061,11.325,0.553,16.508-0.736
												c6.491-1.615,12.652-4.727,18.419-8.054c2.094-1.208,0.206-4.449-1.893-3.238c-4.997,2.883-10.266,5.584-15.811,7.224
												c-4.965,1.467-11.242,3.176-16.227,1.189C305.132,431.89,304.166,435.518,306.384,436.402L306.384,436.402z"/>
										</g>
									</g>
								</g>
								<g>
									<g>
										<path style="fill:#498B90;" d="M288.556,434.281c0.334-4.181-3.666-10.974-8-11.147c-3.832-0.174-9.5,2.786-11.5,6.444
											c-4,7.315,6.668,6.968,10.834,6.097"/>
									</g>
									<g>
										<g>
											<path style="fill:#498B90;" d="M269.348,434.917c10.624,5.323,26.258-1.16,35.988-5.718
												c2.188-1.025,0.283-4.258-1.893-3.238c-5.22,2.445-10.723,4.651-16.386,5.811c-4.775,0.978-11.271,2.185-15.817-0.094
												C269.085,430.598,267.186,433.832,269.348,434.917L269.348,434.917z"/>
										</g>
									</g>
								</g>
							</g>
						</g>
						<g>
							<path style="fill-rule:evenodd;clip-rule:evenodd;fill:#61B9C0;" d="M316.792,400.767c6.406-0.356,12.74-0.71,19.256-1.072
								c0.203-2.228,0.555-4.517,0.59-6.809c0.068-4.59,0.176-9.198-0.113-13.775c-0.621-9.867-2.447-19.476-6.939-28.428
								c-0.348-0.694-0.176-1.71-0.078-2.557c1.205-10.453,3.857-20.615,6.188-30.846c1.734-7.622,3.432-15.263,4.799-22.956
								c1.803-10.142,0.041-19.866-4.281-29.161c-1.096-2.353-2.131-4.735-3.322-7.037c-2.402-4.641-6.334-7.645-10.938-9.854
								c-5.91-2.836-12.223-4.098-18.699-4.745c-3.336-0.333-6.537-0.116-9.506,1.599c-3.152,1.819-5.344,4.541-7.064,7.665
								c-3.061,5.561-6.619,11.624-7.756,17.809c-1.664,9.054-1.482,18.205-1.561,27.396c-0.086,10.146,0.988,20.297,1.236,30.439
								c0.191,7.87,0.646,15.74,1.186,23.596c0.676,9.888,1.533,19.764,2.353,29.64c0.52,6.252,1.113,12.498,1.676,18.746
								c0.027,0.312,0.07,0.622,0.125,1.098c6.006-0.052,11.977-0.103,18.076-0.154c0.396-3.366,0.834-6.558,1.135-9.763
								c0.631-6.771,0.93-13.556,0.34-20.348c-0.561-6.442-1.813-12.719-4.6-18.621c-0.213-0.447-0.246-1.092-0.109-1.576
								c3.389-12.096,5.383-24.458,7.086-36.877c0.313-2.277,0.605-4.557,1.08-6.824c0.131,2.334,0.258,4.67,0.393,7.004
								c0.273,4.826,0.516,9.655,0.838,14.48c0.512,7.704,1.775,15.307,3.047,22.916c0.762,4.565,1.131,9.197,1.654,13.801
								c0.924,8.139,1.844,16.277,2.738,24.419c0.34,3.099,0.6,6.204,0.908,9.308C316.576,399.747,316.693,400.21,316.792,400.767z"
								/>
							<g>
								<path style="opacity:0.3;fill-rule:evenodd;clip-rule:evenodd;fill:#498B90;" d="M305.871,314.174
									c0.223-1.627,0.439-3.254,0.715-4.878c-3.205,6.565-7.297,12.683-10.203,19.391c-4.313,9.954-3.42,18.575-1.428,28.976
									c2.719,14.195,2.59,29.271,0.777,43.75c2.09-0.018,4.174-0.035,6.287-0.054c0.396-3.366,0.834-6.558,1.135-9.763
									c0.631-6.771,0.93-13.556,0.34-20.348c-0.561-6.442-1.813-12.719-4.6-18.621c-0.213-0.447-0.246-1.092-0.109-1.576
									C302.173,338.956,304.167,326.593,305.871,314.174z"/>
								<path style="opacity:0.3;fill-rule:evenodd;clip-rule:evenodd;fill:#498B90;" d="M335.695,317.28
									c1.734-7.622,3.432-15.263,4.799-22.956c1.803-10.142,0.041-19.866-4.281-29.161c-1.096-2.353-2.131-4.735-3.322-7.037
									c-0.604-1.164-1.301-2.224-2.082-3.195c-5.543,6.44-3.098,19.153-2.434,26.568c1.113,12.418-0.324,24.98-2.017,37.287
									c-1.094,7.947-2.557,15.874-2.752,23.912c-0.189,7.798,2.652,14.082,3.887,21.576c1.953,11.862,1.508,23.852,1.348,35.822
									c2.387-0.133,4.783-0.267,7.209-0.401c0.203-2.228,0.555-4.517,0.59-6.809c0.068-4.59,0.176-9.198-0.113-13.775
									c-0.621-9.867-2.447-19.476-6.939-28.428c-0.348-0.694-0.176-1.71-0.078-2.557
									C330.712,337.672,333.365,327.51,335.695,317.28z"/>
							</g>
							<g>
								<path style="fill-rule:evenodd;clip-rule:evenodd;fill:none;stroke:#498B90;stroke-width:10;stroke-miterlimit:10;" d="
									M281.611,401.201c6.068,0.335,16.1-0.001,22.131-0.337"/>
								<path style="fill-rule:evenodd;clip-rule:evenodd;fill:none;stroke:#498B90;stroke-width:10;stroke-miterlimit:10;" d="
									M314.824,399.967c7.799,0.393,17.439-0.076,23.471-0.412"/>
							</g>
						</g>
					</g>
					<g>
						<g>
							<path style="fill-rule:evenodd;clip-rule:evenodd;fill:#FAB69D;" d="M338.318,198.29c-4.32-17.28-18.52-15.079-34.02-15.12
								c-15.543-0.041-30.836-1.89-33.16,16.42"/>
						</g>
						<g>
							<g>
								<g>
									<g>
										<path style="fill:#61B9C0;" d="M277.535,207.054l53.494-1.646c-2.752,19.009-4.002,22.895-8.031,37.807
											c11.029,3.314,22.279,36.889,18.477,40.826c-6.516,6.934-30.027,5.375-36.447,4.756
											c-11.762-1.133-29.221-6.391-29.232-6.148c-0.26-14.129,8.232-33.573,9.631-36.695c0,0-1.205-16.354-4.072-18.137
											C274.207,223.374,274.636,217.927,277.535,207.054z"/>
									</g>
									<g>
										<path style="fill:#61B9C0;" d="M321.527,182.052l-20.449,17.888c-1.986-2.715-13.801-15.263-13.551-18.087
											c0,0-3.75-1.551-8,0.449c-7.25,3.5-11.75,8.5-13,17c-0.25,1.75-1.75,7.25-0.75,8.75s11.561,3.73,13.811,4.23
											c3.75,1,2.189,2.576,6.189,3.326c3.25,0.5,7.006,0.943,10.256,1.193c13,0.75,21.191,5.428,32.441-1.572
											c2-1.25,16.303-7.428,17.053-8.928c0,0-3.75-9.75-5-12C336.777,187.802,329.777,180.552,321.527,182.052"/>
									</g>
								</g>
								<g style="opacity:0.3;">
									<g>
										<path style="fill:#498B90;" d="M280.064,195.772c-0.125-3.779-0.881-6.263-2.502-9.624
											c-0.365-0.757-0.689-1.489-0.977-2.237c-5.525,3.401-8.988,8.11-10.059,15.392c-0.25,1.75-1.75,7.25-0.75,8.75
											c0.857,1.286,8.734,3.107,12.383,3.916C279.031,206.55,280.253,201.387,280.064,195.772z"/>
									</g>
									<g>
										<path style="fill:#498B90;" d="M340.527,194.302c-2.797-4.847-7.4-10.105-12.98-11.847
											c-4.76,4.444-3.629,13.578-2.666,19.275c0.783,4.634,1.908,9.193,3.287,13.681c0.104-0.062,0.203-0.118,0.307-0.182
											c2-1.25,16.303-7.428,17.053-8.928C345.527,206.302,341.777,196.552,340.527,194.302z"/>
									</g>
								</g>
							</g>
							<g>
								<g>
									<path style="fill:#FAB69D;" d="M326.162,213.424c3.373,9.066,12.324,30.905,12.479,33.27
										c0.828,12.653,0.828,16.486,5.58,31.825c2.1,6.78,8.57,5.083,8.557-2.002c-0.02-10.143,0.02-20.306-3.16-30.856
										c-2.971-9.853-0.729-28.611-4.324-38.277"/>
								</g>
								<g>
									<path style="fill:#FAB69D;" d="M360.291,295.576c2.314-0.71-2.074-9.494-2.666-10.453
										c-1.305-2.114-3.445-3.686-4.392-5.986c-0.26-0.63-1.508-7.588-1.18-7.619c-2.684,0.262-5.473,0.637-8.117,1.156
										c0.393,3.978,0.793,6.499-0.926,10.119c-1.143,2.408-2.643,6.948-1.162,9.462c1.85,0.844,2.572-3.189,3.328-4.091
										c0.791,3.433,0.379,8.063,1.734,11.195c1.697,1.341,2.699-4.114,2.797-6.209c0.875,3.242,1.238,7.38,3.416,7.975
										c2.176,0.592,0.607-6.538,0.377-8.378c0.557,1.592,2.301,6.56,3.488,6.401c2.057-0.336,0.885-4.228,0.35-7.857
										C358.431,293.17,359.173,295.93,360.291,295.576z"/>
								</g>
							</g>
							<g>
								<path style="fill:#FAB69D;" d="M286.244,262.456c-3.728-5.783-5.76-11.48-10.139-15.222
									c0.992-7.899,1.928-14.304,2.941-21.627c-0.898-0.595-1.684-1.364-2.283-2.417c-1.52-2.667-1.18-7.155-0.287-10.566
									l-11.801-2.213c-0.947,7.522-1.434,16.086-2.078,23.638c-0.352,4.112-0.781,8.221-1.359,12.308
									c-0.502,3.557-1.045,6.955,2.025,9.576c5.125,4.377,10.248,8.754,15.373,13.131
									C285.949,275.306,291.494,270.598,286.244,262.456z"/>
							</g>
							<g>
								<path style="fill-rule:evenodd;clip-rule:evenodd;fill:none;stroke:#498B90;stroke-width:6;stroke-miterlimit:10;" d="
									M274.177,283.88c14.766,6.712,54.322,4.027,69.76,0"/>
								<g>
									<path style="fill-rule:evenodd;clip-rule:evenodd;fill:none;stroke:#498B90;stroke-width:6;stroke-miterlimit:10;" d="
										M326.513,214.424c5.369-1.343,15.41-6.027,20.779-8.041"/>
									<path style="fill-rule:evenodd;clip-rule:evenodd;fill:none;stroke:#498B90;stroke-width:6;stroke-miterlimit:10;" d="
										M263.427,207.726c4.025,1.342,11.053,3.014,15.08,3.685"/>
								</g>
							</g>
							<g>
								<g>
									<path style="fill:#FAB69D;" d="M280.541,275.111c4.619-1.157,8.906-3.15,13.242-5.075
										c-1.244-1.121-2.483-2.229-3.426-3.377c1.178-0.048,4.81,1.844,5.273-0.137c-1.086-2.709-5.596-4.293-8.201-4.859
										c-3.916-0.851-5.668-2.707-8.578-5.447c-2.025,1.775-4.027,3.755-5.873,5.721c0.227-0.241,4.971,4.997,5.311,5.588
										c1.244,2.153,1.182,4.811,2.059,7.134C280.382,274.75,280.449,274.908,280.541,275.111z"/>
								</g>
								<g>
									<path style="fill-rule:evenodd;clip-rule:evenodd;fill:none;stroke:#498B90;stroke-width:6;stroke-miterlimit:10;" d="
										M280.294,276.683c4.666-1.167,12.166-4.5,16.334-7"/>
									<path style="fill-rule:evenodd;clip-rule:evenodd;fill:none;stroke:#498B90;stroke-width:6;stroke-miterlimit:10;" d="
										M315.96,268.849c4.334,2.5,11.336,4.334,16.668,4.667"/>
								</g>
							</g>
						</g>
						<g>
							<path style="fill-rule:evenodd;clip-rule:evenodd;fill:none;stroke:#498B90;stroke-width:6;stroke-miterlimit:10;" d="
								M286.904,180.88c2.012,4.698,15.436,20.463,15.436,20.463c16.613-14.876,16.572-15.888,20.135-19.449"/>
							<g>
								<g>
									<g>
										<path style="fill:#482D55;" d="M285.072,226.988c-0.961-8.711-2.696-17.333-2.928-26.114
											c-0.117-4.425,0.301-8.963,2.146-13.031c2.294-5.055,7.125-6.547,12.159-7.512c8.592-1.646,18.616-1.147,23.333,7.295
											c4.301,7.696,2.869,18.302,1.683,26.599c-0.124,0.867,1.201,1.24,1.326,0.365c1.289-9.014,2.391-19.21-1.821-27.658
											c-3.891-7.802-12.825-9.198-20.686-8.52c-9.886,0.852-17.018,4.278-18.988,14.541c-2.13,11.1,1.183,23.006,2.4,34.036
											C283.792,227.859,285.169,227.869,285.072,226.988L285.072,226.988z"/>
									</g>
								</g>
								<g>
									<g>
										<g>
											<path style="fill:#BAE7EC;" d="M285.283,232.963c8.867,0,8.867-13.75,0-13.75
												C276.416,219.213,276.416,232.963,285.283,232.963L285.283,232.963z"/>
										</g>
									</g>
									<g>
										<g>
											<path style="fill:#67BCCF;" d="M285.283,230.901c6.207,0,6.207-9.625,0-9.625
												C279.076,221.276,279.076,230.901,285.283,230.901L285.283,230.901z"/>
										</g>
									</g>
								</g>
								<g>
									<g>
										<g>
											<path style="fill:#BAE7EC;" d="M312.931,244.962c-0.105-7.805-5.335-25.871,4.522-29.642
												c8.742-3.344,12.872,5.421,12.751,12.454c-0.105,6.09-2.037,12.274-4.244,17.902c-0.324,0.826,1.006,1.181,1.326,0.365
												c3.843-9.798,9.833-32.685-7.435-32.523c-14.232,0.133-8.405,23.282-8.295,31.444
												C311.568,245.848,312.943,245.85,312.931,244.962L312.931,244.962z"/>
										</g>
									</g>
									<g>
										<g>
											<path style="fill:#BAE7EC;" d="M323.755,215.652c0.016-1.24,0.193-2.448,0.397-3.668c0.154-0.923-0.229-1.847-1.2-2.114
												c-0.832-0.229-1.96,0.275-2.114,1.2c-0.254,1.517-0.501,3.041-0.52,4.582
												C320.291,217.87,323.728,217.867,323.755,215.652L323.755,215.652z"/>
										</g>
									</g>
									<g>
										<g>
											<g>
												<path style="fill:#BAE7EC;" d="M312.64,247.333c3.325,0,3.325-5.156,0-5.156S309.315,247.333,312.64,247.333
													L312.64,247.333z"/>
											</g>
										</g>
										<g>
											<g>
												<path style="fill:#BAE7EC;" d="M326.162,248.48c3.325,0,3.325-5.156,0-5.156
													C322.836,243.324,322.836,248.48,326.162,248.48L326.162,248.48z"/>
											</g>
										</g>
									</g>
								</g>
							</g>
							<g>
								<g>
									<g>
										<g>
											<path style="fill:#FAB69D;" d="M306.361,176.139c-36.684,2.197-33.527-54.002-3.24-54.002
												C333.41,122.137,338.535,178.337,306.361,176.139L306.361,176.139z"/>
										</g>
										<g>
											<path style="fill-rule:evenodd;clip-rule:evenodd;fill:#FAB69D;" d="M282.664,149.419c-2.969-2.7-8.91-2.97-8.369,2.159
												c0.27,4.591,5.4,4.32,8.91,4.051"/>
										</g>
									</g>
									<g>
										<path style="fill:#FAB69D;" d="M295.718,186.554c4.676,3.466,12.072,1.594,17.602,0.015
											c-0.107-0.881-0.777-6.359-1.512-12.262c-2.234,0.234-4.492,0.357-6.787,0.357c-2.756,0-5.451-0.234-8.125-0.57
											c-0.697,5.636-1.355,10.913-1.523,12.268C295.488,186.409,295.603,186.468,295.718,186.554z"/>
									</g>
								</g>
								<g>
									<g>
										<g>
											<path style="fill-rule:evenodd;clip-rule:evenodd;fill:#564056;" d="M294.292,121.006c2.553-8-1.334-13-8.334-15
												s-14.666,2.333-16.666,8.667c-4,15.333,7,20.483,18,17.333"/>
										</g>
										<g>
											<path style="fill-rule:evenodd;clip-rule:evenodd;fill:#564056;" d="M288.886,123.804
												c3.371,17.925,47.563,25.516,54.021,11.759c-14.387-4.031-7.828-21.592-22.309-25.711
												C311.107,107.286,288.218,109.724,288.886,123.804"/>
										</g>
										<g>
											<path style="fill-rule:evenodd;clip-rule:evenodd;fill:#564056;" d="M297.785,129.44
												c-6.48,4.859-15.939,15.524-17.561,23.354c-4.049-12.42-4.311-39.015,16.211-35.505"/>
										</g>
									</g>
									<g style="opacity:0.1;">
										<path style="fill:#FFFFFF;" d="M299.015,125.848c0.336,0.438,0.612,0.93,0.997,1.325c0.381,0.397,0.717,0.816,1.142,1.17
											c0.4,0.372,0.802,0.738,1.249,1.057c0.429,0.337,0.864,0.663,1.331,0.95c0.453,0.302,0.908,0.599,1.391,0.856
											c0.476,0.268,0.942,0.543,1.434,0.78c0.489,0.239,0.96,0.509,1.465,0.715c0.501,0.212,0.988,0.451,1.498,0.641
											l1.522,0.571l1.543,0.503l1.563,0.417c0.522,0.129,1.053,0.217,1.577,0.328c0.526,0.108,1.058,0.15,1.584,0.236
											c0.527,0.086,1.056,0.08,1.582,0.126c0.527,0.042,1.044-0.014,1.566-0.014c0.517-0.028,1.017-0.129,1.524-0.185
											l0.014,1.84l-1.608-0.403c-0.504-0.22-1.002-0.462-1.499-0.7c-0.457-0.305-0.902-0.63-1.35-0.951
											c-0.395-0.379-0.78-0.773-1.165-1.165l-0.953-1.344l-0.714-1.489c-0.153-0.53-0.31-1.061-0.443-1.597l-0.145-1.656
											c-0.046-0.523,0.341-0.984,0.864-1.03c0.256-0.022,0.496,0.059,0.681,0.208l0.096,0.078l1.84,1.495
											c0.313,0.239,0.649,0.44,0.973,0.663l0.978,0.654c0.333,0.205,0.689,0.367,1.031,0.554l1.031,0.555l1.084,0.435
											c0.363,0.139,0.72,0.301,1.09,0.423l1.132,0.304c0.38,0.091,0.749,0.23,1.139,0.282l1.165,0.178
											c0.39,0.049,0.772,0.157,1.17,0.163l1.187,0.073c0.396,0.016,0.791,0.069,1.19,0.054l2.398-0.061l-0.424,1.17l-1.25-1.267
											l-1.315-1.221l-2.704-2.417c-0.9-0.817-1.783-1.659-2.634-2.53c-0.41-0.452-0.836-0.887-1.226-1.354l-1.123-1.435
											l1.298,1.268l1.353,1.2c0.923,0.774,1.871,1.515,2.841,2.233c0.974,0.714,1.949,1.432,2.912,2.179l1.432,1.149
											l1.389,1.223c0.277,0.244,0.304,0.666,0.061,0.943c-0.119,0.135-0.281,0.211-0.448,0.225l-0.035,0.003l-2.497,0.194
											c-0.417,0.037-0.839,0.004-1.259,0.009l-1.263-0.014c-0.422,0.013-0.842-0.075-1.264-0.11l-1.263-0.154
											c-0.423-0.045-0.831-0.18-1.248-0.267l-1.245-0.295c-0.409-0.121-0.805-0.283-1.209-0.423l-1.204-0.443l-1.145-0.571
											c-0.376-0.2-0.768-0.378-1.132-0.596l-1.067-0.695c-0.352-0.237-0.72-0.456-1.059-0.708l-1.98-1.577l1.641-0.745
											l0.128,1.296c0.122,0.418,0.237,0.837,0.347,1.26l0.555,1.19l0.751,1.082l0.922,0.94l1.065,0.768l1.18,0.566l1.258,0.358
											l0.181,0.052c0.485,0.138,0.767,0.644,0.628,1.129c-0.106,0.372-0.431,0.625-0.795,0.66
											c-0.591,0.054-1.186,0.148-1.772,0.161c-0.583-0.014-1.174,0.024-1.748-0.038c-0.572-0.066-1.155-0.083-1.717-0.191
											c-0.563-0.105-1.135-0.176-1.685-0.322c-0.551-0.145-1.107-0.268-1.65-0.433l-1.617-0.521l-1.582-0.607
											c-0.521-0.217-1.028-0.465-1.542-0.697c-0.512-0.234-1.001-0.518-1.501-0.773c-0.504-0.249-0.975-0.563-1.46-0.846
											c-0.49-0.274-0.945-0.61-1.404-0.933c-0.467-0.312-0.906-0.664-1.341-1.02c-0.446-0.34-0.862-0.719-1.268-1.108
											c-0.422-0.369-0.799-0.787-1.17-1.207c-0.393-0.396-0.709-0.876-1.03-1.331
											C299.498,126.847,299.291,126.328,299.015,125.848z"/>
									</g>
								</g>
								<g>
									<g>
										<g>
											<g style="opacity:0.7;">
												<g>
													<path style="fill:#86AEEC;" d="M292.995,147.629c1.501-1.138,3.803-2.25,5.648-1.147
														c2.248,1.342,4.284-2.16,2.045-3.497c-3.036-1.813-7.081-0.868-9.738,1.147
														C288.898,145.689,290.912,149.208,292.995,147.629L292.995,147.629z"/>
												</g>
											</g>
											<g style="opacity:0.7;">
												<g>
													<path style="fill:#86AEEC;" d="M311.354,147.629c1.502-1.138,3.803-2.25,5.65-1.147
														c2.249,1.341,4.285-2.162,2.045-3.497c-3.039-1.812-7.08-0.868-9.74,1.147
														C307.256,145.687,309.27,149.207,311.354,147.629L311.354,147.629z"/>
												</g>
											</g>
										</g>
										<g>
											<g>
												
													<path style="fill:none;stroke:#564056;stroke-width:1.08;stroke-linecap:round;stroke-linejoin:round;stroke-miterlimit:10;" d="
													M301.466,146.96c-2.682-1.66-6.707-0.889-8.742,0.662"/>
												<g>
													<g>
														<g>
															<path style="fill:#564056;" d="M296.843,151.175c3.656,0,3.656-5.67,0-5.67
																C293.187,145.505,293.187,151.175,296.843,151.175L296.843,151.175z"/>
														</g>
													</g>
													<g>
														<g>
															<path style="fill:#FFFFFF;" d="M296.384,148.722c1.419,0,1.419-2.2,0-2.2
																C294.965,146.521,294.965,148.722,296.384,148.722L296.384,148.722z"/>
														</g>
													</g>
												</g>
											</g>
											<g>
												
													<path style="fill:none;stroke:#564056;stroke-width:1.08;stroke-linecap:round;stroke-linejoin:round;stroke-miterlimit:10;" d="
													M319.826,146.96c-2.703-1.66-6.707-0.889-8.742,0.662"/>
												<g>
													<g>
														<g>
															<path style="fill:#564056;" d="M315.203,151.175c3.656,0,3.656-5.67,0-5.67
																C311.546,145.505,311.546,151.175,315.203,151.175L315.203,151.175z"/>
														</g>
													</g>
													<g>
														<g>
															<path style="fill:#FFFFFF;" d="M314.744,148.722c1.419,0,1.419-2.2,0-2.2
																C313.325,146.521,313.325,148.722,314.744,148.722L314.744,148.722z"/>
														</g>
													</g>
												</g>
											</g>
										</g>
									</g>
									<g style="opacity:0.6;">
										<path style="fill:#895D38;" d="M304.222,152.989c0,0-0.002,0.186-0.006,0.512c0.009,0.161,0.02,0.348,0.043,0.557
											c0.027,0.213,0.082,0.441,0.157,0.676c0.172,0.464,0.505,0.906,1.015,1.169c0.502,0.264,1.155,0.383,1.796,0.321
											c0.644-0.032,1.283-0.243,1.773-0.555c0.494-0.315,0.815-0.759,0.912-1.226c0.056-0.23,0.061-0.463,0.041-0.669
											c-0.006-0.211-0.064-0.391-0.088-0.548c-0.092-0.309-0.144-0.485-0.144-0.485s0.125,0.135,0.325,0.403
											c0.078,0.145,0.208,0.311,0.279,0.542c0.089,0.222,0.166,0.498,0.157,0.812c0.032,0.631-0.338,1.399-0.96,1.879
											c-0.61,0.504-1.414,0.777-2.225,0.844c-0.809,0.053-1.664-0.109-2.329-0.57c-0.333-0.222-0.611-0.514-0.788-0.837
											c-0.196-0.313-0.275-0.652-0.322-0.951c-0.035-0.304-0.019-0.576,0.019-0.81c0.034-0.235,0.1-0.435,0.144-0.59
											C304.15,153.16,304.222,152.989,304.222,152.989z"/>
									</g>
									<g>
										<g>
											<path style="fill:#E14B86;" d="M301.16,162.434c1.08-1.35,3.24-3.645,4.59-1.35c3.51-2.971,4.455,2.43,2.295,4.59
												c-2.836,2.971-7.291,0.404-6.615-3.51"/>
										</g>
										<g>
											<g>
												<g>
													<path style="fill:#564056;" d="M298.277,160.427c3.12,3.891,8.419,4.55,12.871,2.72
														c0.647-0.266,0.363-1.331-0.293-1.061c-4.123,1.695-8.895,1.186-11.801-2.437
														C298.611,159.096,297.837,159.88,298.277,160.427L298.277,160.427z"/>
												</g>
											</g>
											<g>
												<g>
													<path style="fill:#564056;" d="M298.917,158.29c-0.352,1.103-0.993,2.078-1.987,2.697
														c-0.437,0.272-0.035,0.964,0.404,0.69c1.173-0.73,1.938-1.871,2.354-3.174
														C299.846,158.009,299.074,157.8,298.917,158.29L298.917,158.29z"/>
												</g>
											</g>
										</g>
									</g>
								</g>
							</g>
						</g>
					</g>
				</g>
				<g>
					<g>
						<g>
							<g>
								<g>
									<path style="fill:#FAB69D;" d="M52.875,413.179c0.104-3.896-0.621-11.212-0.832-19.802
										c5.523,0.738,11.053,1.393,16.617,1.68c-1.645,9.514-2.787,16.63-2.875,19.954c0,0,13.514,21.23,9.219,20.604
										c-11.799-0.882-27.338-8.411-26.617-9.433L52.875,413.179z"/>
								</g>
								<g>
									<path style="fill:#FAB69D;" d="M87.735,414.242c-0.229-3.891-1.572-11.118-2.516-19.659
										c5.566,0.266,11.133,0.447,16.701,0.258c-0.828,9.62-1.361,16.808-1.166,20.127c0,0,15.274,20.002,10.94,19.743
										c-11.83,0.126-27.955-6.052-27.324-7.131L87.735,414.242z"/>
								</g>
							</g>
							<g>
								<g>
									<g>
										<path style="fill:#498B90;" d="M61.379,434.018c0.024-4.193,4.588-10.621,8.92-10.425c3.834,0.153,9.229,3.585,10.91,7.4
											c3.361,7.63-7.236,6.374-11.313,5.151"/>
									</g>
									<g>
										<g>
											<path style="fill:#498B90;" d="M79.16,432.787c-4.841,1.929-10.595,0.286-15.436-0.977
												c-5.845-1.524-11.393-4.429-16.604-7.436c-2.098-1.211-3.986,2.03-1.893,3.238c5.491,3.168,11.353,6.16,17.5,7.814
												c5.396,1.452,12.017,3.134,17.429,0.977C82.375,435.518,81.409,431.89,79.16,432.787L79.16,432.787z"/>
										</g>
									</g>
								</g>
								<g>
									<g>
										<path style="fill:#498B90;" d="M97.983,434.281c-0.332-4.181,3.668-10.974,8-11.147c3.834-0.174,9.5,2.786,11.5,6.444
											c4,7.315-6.666,6.968-10.832,6.097"/>
									</g>
									<g>
										<g>
											<path style="fill:#498B90;" d="M115.298,431.678c-4.631,2.32-10.958,0.965-15.817,0.094
												c-5.643-1.013-11.223-3.394-16.384-5.811c-2.176-1.02-4.081,2.213-1.893,3.238c9.729,4.558,25.362,11.041,35.986,5.718
												C119.354,433.832,117.454,430.598,115.298,431.678L115.298,431.678z"/>
										</g>
									</g>
								</g>
							</g>
						</g>
						<g>
							<path style="fill-rule:evenodd;clip-rule:evenodd;fill:#61B9C0;" d="M51.219,401.216c-0.447-4.766-1.018-9.435-1.297-14.121
								c-0.543-9.142,0.105-18.204,2.424-27.096c0.531-2.042,1.076-4.128,1.998-6.008c1.006-2.051,0.934-3.997,0.529-6.116
								c-1.885-9.857-4.912-19.408-7.668-29.035c-2.15-7.515-4.281-15.045-6.078-22.65c-2.367-10.023-1.156-19.832,2.633-29.358
								c0.959-2.41,1.863-4.846,2.922-7.213c2.08-4.645,5.695-7.854,10.047-10.283c6.887-3.844,14.377-5.765,22.172-6.283
								c4.447-0.296,8.084,1.88,11.021,5.164c3.315,3.703,5.322,8.129,6.957,12.748c2.525,7.145,3.955,14.549,5.016,22.023
								c1.613,11.365,2.486,22.799,2.703,34.272c0.211,11.149,0.34,22.303,0.342,33.455c0.004,7.112-0.254,14.225-0.457,21.336
								c-0.26,9.146-0.584,18.292-0.883,27.438c-0.002,0.116-0.037,0.232-0.09,0.54c-5.934,0.281-11.896,0.565-17.998,0.855
								c-0.506-2.8-1.037-5.446-1.457-8.11c-1.154-7.352-1.965-14.738-1.705-22.195c0.221-6.338,1.123-12.559,3.541-18.488
								c0.188-0.461,0.203-1.107,0.043-1.58c-3.789-11.09-6.367-22.486-8.646-33.959c-0.613-3.08-1.188-6.168-1.951-9.24
								c0,2.319,0.002,4.64,0,6.959c-0.006,4.835,0.025,9.67-0.027,14.505c-0.086,7.721-0.916,15.384-1.768,23.051
								c-0.502,4.521-0.623,9.086-0.885,13.633c-0.477,8.296-0.941,16.593-1.385,24.892c-0.166,3.112-0.285,6.229-0.365,9.345
								c-0.027,1.078-0.338,1.503-1.521,1.493c-5.52-0.048-11.037,0.009-16.557,0.028C52.397,401.217,51.967,401.216,51.219,401.216
								z"/>
							<g>
								<path style="opacity:0.3;fill-rule:evenodd;clip-rule:evenodd;fill:#498B90;" d="M58.35,389.024
									c2.379-15.205,6.768-30.562,4.162-45.946c-2.461-14.529-4.963-29.053-7.373-43.593c-1.025-6.183-1.682-12.288-2.406-18.5
									c-0.418-3.59-0.938-8.789-4.56-10.694c-1.627-0.856-3.315-1.383-5.053-1.774c-3.277,8.996-4.221,18.24-1.992,27.674
									c1.797,7.605,3.928,15.136,6.078,22.65c2.756,9.627,5.783,19.178,7.668,29.035c0.404,2.119,0.477,4.065-0.529,6.116
									c-0.922,1.88-1.467,3.966-1.998,6.008c-2.318,8.892-2.967,17.954-2.424,27.096c0.279,4.687,0.85,9.355,1.297,14.121
									c0.748,0,1.178,0.001,1.609,0c1.291-0.005,2.582-0.012,3.873-0.018C57.075,397.1,57.725,393.011,58.35,389.024z"/>
								<path style="opacity:0.3;fill-rule:evenodd;clip-rule:evenodd;fill:#498B90;" d="M90.858,356.297
									c-0.656-16.194-6.08-35.715-15.438-49.25c-0.154,0.264,0.424,2.428,0.424,2.428c0.525,2.357,0.975,4.719,1.443,7.076
									c2.279,11.473,4.857,22.869,8.646,33.959c0.16,0.473,0.145,1.119-0.043,1.58c-2.418,5.93-3.32,12.15-3.541,18.488
									c-0.26,7.457,0.551,14.844,1.705,22.195c0.42,2.664,0.951,5.311,1.457,8.11c1.814-0.087,3.598-0.171,5.391-0.256
									c-0.156-5.207-0.305-10.413-0.354-15.622C90.459,375.443,91.247,365.852,90.858,356.297z"/>
							</g>
							<g>
								<path style="fill-rule:evenodd;clip-rule:evenodd;fill:none;stroke:#498B90;stroke-width:10;stroke-miterlimit:10;" d="
									M49.991,400.317c7.475,0,15.641,0,22.135,0"/>
								<path style="fill-rule:evenodd;clip-rule:evenodd;fill:none;stroke:#498B90;stroke-width:10;stroke-miterlimit:10;" d="
									M82.891,399.645c7.074,0,15.752,0.672,21.791,0.672"/>
							</g>
						</g>
					</g>
					<g>
						<g>
							<g>
								<path style="fill:#4D3520;" d="M77.598,111.215c7.48-3.52,1.76-14.814-4.547-10.12c-1.027-3.374-0.588-6.014-4.693-7.626
									c-2.199-0.88-7.48-1.32-8.213,1.906c-4.254-7.334-20.826-4.84-16.428,4.4c-3.08-4.547-12.174-1.615-12.906,3.373
									c-0.293,2.492,0.293,6.892,3.961,6.307c-3.228,1.025-6.16,2.199-6.748,5.865c-0.44,3.229,1.613,7.334,5.279,7.188
									c-3.08-0.147-5.426,3.08-5.279,5.866c0.295,4.254,6.894,6.894,10.56,5.72c-3.08,1.319-3.52,4.84-2.494,7.626
									c1.32,3.374,3.521,3.814,6.895,3.52c-7.188,8.36,12.467,11.44,13.492,3.229"/>
							</g>
							<g>
								<g>
									<g>
										<path style="fill:#FAB69D;" d="M79.299,176.644c-36.682,2.197-33.525-54.002-3.24-54.002
											C106.348,122.642,111.473,178.841,79.299,176.644L79.299,176.644z"/>
									</g>
									<g>
										<path style="fill-rule:evenodd;clip-rule:evenodd;fill:#FAB69D;" d="M55.604,149.924c-2.971-2.7-8.91-2.97-8.371,2.159
											c0.271,4.591,5.4,4.32,8.91,4.051"/>
									</g>
								</g>
								<g>
									<g>
										<path style="fill:#FAB69D;" d="M76.641,174.169c2.756,0,5.451-0.234,8.125-0.57c0.811,6.541,1.566,12.612,1.566,12.612
											c0,11.61-18.006,11.61-18.006,0c0,0,0.725-5.956,1.527-12.4C72.088,174.046,74.346,174.169,76.641,174.169z"/>
									</g>
									<g>
										<path style="fill-rule:evenodd;clip-rule:evenodd;fill:#FAB69D;" d="M43.344,197.794c4.32-17.28,18.519-15,34.02-15.12
											c11.893-0.093,28.094-2.736,29.16,18.42"/>
									</g>
								</g>
							</g>
							<g>
								<g>
									<g>
										<g style="opacity:0.7;">
											<g>
												<path style="fill:#BEACFE;" d="M65.806,148.433c1.503-1.138,3.803-2.249,5.651-1.147
													c2.249,1.341,4.284-2.162,2.044-3.497c-3.039-1.812-7.079-0.868-9.739,1.147
													C61.708,146.491,63.722,150.011,65.806,148.433L65.806,148.433z"/>
											</g>
										</g>
										<g style="opacity:0.7;">
											<g>
												<path style="fill:#BEACFE;" d="M84.165,148.433c1.502-1.138,3.804-2.25,5.651-1.147c2.248,1.342,4.284-2.16,2.044-3.497
													c-3.037-1.813-7.081-0.867-9.739,1.147C80.067,146.491,82.082,150.011,84.165,148.433L84.165,148.433z"/>
											</g>
										</g>
									</g>
									<g>
										<g>
											
												<path style="fill:none;stroke:#564056;stroke-width:1.08;stroke-linecap:round;stroke-linejoin:round;stroke-miterlimit:10;" d="
												M73.405,147.464c-0.18-2.263-5.705-0.889-7.742,0.662"/>
											<g>
												<g>
													<g>
														<path style="fill:#564056;" d="M71.782,151.68c3.656,0,3.656-5.67,0-5.67C68.125,146.01,68.125,151.68,71.782,151.68
															L71.782,151.68z"/>
													</g>
												</g>
												<g>
													<g>
														<path style="fill:#FFFFFF;" d="M71.325,149.227c1.419,0,1.419-2.2,0-2.2
															C69.906,147.026,69.906,149.227,71.325,149.227L71.325,149.227z"/>
													</g>
												</g>
											</g>
										</g>
										<g>
											
												<path style="fill:none;stroke:#564056;stroke-width:1.08;stroke-linecap:round;stroke-linejoin:round;stroke-miterlimit:10;" d="
												M91.764,147.464c-0.18-2.263-5.705-0.889-7.74,0.662"/>
											<g>
												<g>
													<g>
														<path style="fill:#564056;" d="M90.143,151.68c3.656,0,3.656-5.67,0-5.67C86.487,146.01,86.487,151.68,90.143,151.68
															L90.143,151.68z"/>
													</g>
												</g>
												<g>
													<g>
														<path style="fill:#FFFFFF;" d="M89.684,149.227c1.419,0,1.419-2.2,0-2.2
															C88.265,147.026,88.265,149.227,89.684,149.227L89.684,149.227z"/>
													</g>
												</g>
											</g>
										</g>
									</g>
								</g>
								<g style="opacity:0.6;">
									<path style="fill:#895D38;" d="M77.827,153.302c0,0-0.002,0.186-0.006,0.512c0.009,0.161,0.02,0.348,0.043,0.557
										c0.028,0.213,0.082,0.441,0.158,0.676c0.172,0.464,0.505,0.906,1.015,1.169c0.502,0.264,1.155,0.383,1.796,0.321
										c0.643-0.032,1.283-0.243,1.773-0.555c0.494-0.315,0.815-0.759,0.912-1.226c0.056-0.229,0.062-0.463,0.042-0.669
										c-0.006-0.21-0.063-0.391-0.088-0.548c-0.091-0.309-0.144-0.485-0.144-0.485s0.125,0.135,0.325,0.403
										c0.078,0.145,0.209,0.312,0.279,0.542c0.089,0.222,0.166,0.498,0.158,0.812c0.033,0.631-0.338,1.398-0.959,1.879
										c-0.611,0.504-1.415,0.777-2.225,0.844c-0.809,0.053-1.665-0.109-2.33-0.57c-0.332-0.222-0.611-0.514-0.788-0.837
										c-0.197-0.313-0.276-0.652-0.323-0.951c-0.035-0.304-0.018-0.576,0.019-0.81c0.035-0.235,0.1-0.435,0.144-0.59
										C77.754,153.474,77.827,153.302,77.827,153.302z"/>
								</g>
								<g>
									<g>
										<path style="fill:#F066B2;" d="M75.098,162.939c1.08-1.35,3.24-3.645,4.59-1.35c3.512-2.971,4.455,2.43,2.295,4.59
											c-2.834,2.971-7.289,0.404-6.613-3.51"/>
									</g>
									<g>
										<g>
											<path style="fill:#564056;" d="M73.471,162.193c3.092,1.896,8.295,2.742,11.556,0.834
												c0.611-0.358,0.058-1.309-0.556-0.95c-2.914,1.706-7.688,0.857-10.444-0.834
												C73.42,160.872,72.868,161.823,73.471,162.193L73.471,162.193z"/>
										</g>
									</g>
								</g>
							</g>
							<g>
								<g>
									<g>
										<path style="fill:#5C3D2A;" d="M57.909,116.886c-2.834,5.166-2.834,14.666,5,9c-4.5,7.166,5.332,14.166,9.332,6.832
											c-0.166,6,8.668,9.168,10.834,3c0.334,3.168,1.5,5.668,4.834,6.168c4,0.666,8.5-0.834,9.166-5
											c0.834,3.332,4.166,5.666,7.5,5.166c3.334-0.5,3.834-2.5,4.334-5.334c4.332,0,10-0.332,9-6.332
											c-0.5-3.334-3-4.834-6-4.834c4.332-7.334-1.5-13.166-9.168-11.334c0.168-3.332,1.5-7.332-2.666-9.166
											c-3.666-1.5-8.166,0.834-10,4c-0.666-5-2.5-7.834-8-8c-3.5-0.166-7.834,1.834-8.166,5.666
											c-3.334-6.166-11.668-5.5-11.668,1.834c-3-0.834-7.5-1.834-8.832,2.166c-1,2.5,1.166,6,4,5.5"/>
									</g>
									<g>
										<path style="fill:#5C3D2A;" d="M66.907,131.718c-6.834,5.167-12.834,12.167-13.834,20.834
											c-3.832-7.667-7-15.667-4.832-24.5c1.666-6.334,7.166-12.834,14.166-12.5"/>
									</g>
								</g>
								<g style="opacity:0.1;">
									<path style="fill:#FFFFFF;" d="M66.788,116.11l-0.239,1.094c-0.105,0.363-0.085,0.738-0.126,1.1
										c-0.012,0.182-0.04,0.361-0.044,0.543l0.026,0.547c0.01,0.364,0.026,0.726,0.117,1.079c0.07,0.354,0.12,0.71,0.263,1.041
										c0.12,0.336,0.223,0.676,0.415,0.974c0.16,0.314,0.333,0.616,0.567,0.872c0.111,0.131,0.206,0.276,0.327,0.395l0.384,0.328
										c0.234,0.248,0.553,0.356,0.824,0.534c0.297,0.114,0.604,0.218,0.912,0.262c0.315-0.004,0.624,0.071,0.932-0.035l0.46-0.09
										l0.436-0.205c0.142-0.074,0.295-0.116,0.428-0.213l0.396-0.298c0.13-0.101,0.27-0.186,0.394-0.296l0.348-0.372
										c0.231-0.248,0.478-0.476,0.659-0.781l0.592-0.855c0.248-0.358,0.74-0.448,1.099-0.199
										c0.187,0.129,0.301,0.325,0.332,0.534l0.002,0.013c0.056,0.393,0.134,0.781,0.246,1.161
										c0.119,0.379,0.264,0.748,0.435,1.106c0.341,0.717,0.797,1.383,1.337,1.973c0.54,0.589,1.163,1.102,1.84,1.51
										c0.34,0.203,0.692,0.377,1.051,0.528c0.364,0.136,0.728,0.263,1.099,0.342c0.37,0.075,0.743,0.131,1.108,0.122
										c0.367,0.013,0.722-0.047,1.064-0.129c0.342-0.086,0.662-0.226,0.963-0.4c0.294-0.188,0.574-0.4,0.815-0.665
										c0.495-0.519,0.86-1.189,1.148-1.913c0.128-0.373,0.258-0.745,0.341-1.143c0.112-0.384,0.148-0.801,0.226-1.201
										l0.004-0.022c0.104-0.536,0.623-0.886,1.16-0.782c0.419,0.082,0.725,0.418,0.788,0.817l0.083,0.525l0.135,0.522
										c0.114,0.345,0.25,0.684,0.415,1.017c0.334,0.662,0.78,1.283,1.292,1.845c1.017,1.126,2.337,2.049,3.744,2.468
										c0.351,0.1,0.703,0.167,1.047,0.184c0.34,0.009,0.68,0,0.983-0.089c0.31-0.074,0.59-0.211,0.836-0.402
										c0.246-0.19,0.466-0.433,0.635-0.731c0.179-0.288,0.317-0.624,0.416-0.981c0.106-0.353,0.177-0.732,0.215-1.118
										c0.047-0.386,0.064-0.781,0.067-1.182c0.013-0.398-0.03-0.804-0.041-1.208l-0.002-0.042
										c-0.009-0.338,0.257-0.621,0.596-0.63c0.16-0.004,0.309,0.054,0.421,0.152c0.357,0.313,0.696,0.656,1.091,0.923
										c0.191,0.143,0.38,0.292,0.588,0.405c0.206,0.117,0.403,0.257,0.617,0.358l0.642,0.312l0.669,0.24l0.688,0.162l0.699,0.067
										c0.226-0.024,0.466-0.012,0.689-0.062c0.217-0.062,0.457-0.088,0.65-0.207c0.1-0.052,0.21-0.092,0.306-0.153l0.265-0.214
										c0.194-0.131,0.291-0.351,0.447-0.524c0.081-0.218,0.214-0.423,0.262-0.659c0.036-0.236,0.139-0.47,0.124-0.719
										c-0.003-0.245,0.039-0.498,0-0.745l-0.093-0.75l0.195,0.735c0.073,0.246,0.066,0.505,0.103,0.762
										c0.049,0.258-0.021,0.518-0.029,0.782c-0.024,0.263-0.146,0.51-0.22,0.77c-0.152,0.221-0.254,0.492-0.463,0.674
										l-0.298,0.291c-0.107,0.086-0.231,0.149-0.348,0.224c-0.23,0.166-0.498,0.229-0.757,0.328
										c-0.262,0.085-0.535,0.103-0.805,0.155c-0.269,0.005-0.542,0.014-0.813,0.005c-0.265-0.034-0.535-0.061-0.801-0.104
										l-0.781-0.194l-0.753-0.275c-0.25-0.096-0.478-0.233-0.719-0.349c-0.244-0.112-0.464-0.26-0.688-0.403
										c-0.463-0.269-0.865-0.616-1.289-0.94l1.016-0.521c0.046,0.436,0.122,0.865,0.141,1.309c0.03,0.441,0.045,0.887,0.011,1.34
										c-0.022,0.451-0.08,0.91-0.191,1.368c-0.104,0.458-0.26,0.921-0.499,1.362c-0.226,0.444-0.551,0.864-0.952,1.21
										c-0.398,0.348-0.878,0.613-1.379,0.764c-0.5,0.172-1.014,0.211-1.511,0.208c-0.498-0.011-0.979-0.087-1.441-0.204
										c-1.843-0.494-3.408-1.539-4.688-2.857c-0.633-0.669-1.184-1.425-1.62-2.26c-0.214-0.421-0.397-0.859-0.551-1.313
										l-0.189-0.698l-0.121-0.72l1.952,0.013c-0.082,0.468-0.121,0.937-0.248,1.405c-0.095,0.469-0.246,0.934-0.404,1.397
										c-0.345,0.921-0.858,1.823-1.586,2.582c-0.36,0.382-0.788,0.709-1.245,0.987c-0.465,0.266-0.963,0.473-1.48,0.599
										c-0.515,0.122-1.043,0.194-1.558,0.176c-0.519,0.002-1.025-0.076-1.518-0.183c-0.492-0.112-0.964-0.274-1.419-0.469
										c-0.45-0.206-0.882-0.438-1.293-0.702c-0.819-0.531-1.553-1.176-2.185-1.91c-0.63-0.734-1.158-1.558-1.548-2.449
										c-0.191-0.448-0.342-0.912-0.464-1.383c-0.113-0.475-0.185-0.958-0.226-1.443l1.432,0.347l-0.73,0.948
										c-0.223,0.327-0.534,0.6-0.827,0.881l-0.442,0.418c-0.16,0.128-0.343,0.236-0.514,0.353l-0.524,0.338
										c-0.178,0.106-0.392,0.164-0.587,0.246c-0.2,0.074-0.397,0.153-0.598,0.218l-0.645,0.087
										c-0.425,0.095-0.862-0.009-1.289-0.053c-0.415-0.09-0.823-0.258-1.196-0.442c-0.339-0.246-0.733-0.429-0.992-0.754
										l-0.422-0.446c-0.129-0.156-0.227-0.335-0.339-0.501c-0.239-0.327-0.402-0.689-0.547-1.058
										c-0.177-0.355-0.256-0.741-0.349-1.119c-0.116-0.374-0.134-0.763-0.17-1.146c-0.056-0.382-0.036-0.766-0.009-1.147
										c0.009-0.381,0.041-0.761,0.137-1.134c0.093-0.369,0.128-0.752,0.279-1.095L66.788,116.11z"/>
								</g>
							</g>
						</g>
						<g>
							<g>
								<g>
									<g>
										<path style="fill:#61B9C0;" d="M103.489,207.054l-53.492-1.646c2.752,19.009,4.002,22.895,8.029,37.807
											c-11.027,3.314-22.277,36.889-18.475,40.826c6.514,6.934,30.025,5.375,36.447,4.756c11.76-1.133,27.221-6.391,27.23-6.148
											c0.26-14.129-6.23-33.573-7.629-36.695c0,0,1.203-16.354,4.072-18.137C106.817,223.374,106.389,217.927,103.489,207.054z"
											/>
									</g>
									<g>
										<path style="fill:#61B9C0;" d="M59.499,182.052l19.617,17.767c1.986-2.715,14.633-15.142,14.383-17.966
											c0,0,3.75-1.551,8,0.449c7.25,3.5,10.75,8.5,12,17c0.25,1.75,1.75,7.25,0.75,8.75s-10.561,3.73-12.811,4.23
											c-3.75,1-2.189,2.576-6.189,3.326c-3.25,0.5-7.008,0.943-10.258,1.193c-13,0.75-21.19,5.428-32.44-1.572
											c-2-1.25-15.303-8.428-16.053-9.928c-1.25-2.5,2.75-8.75,4-11C44.249,187.802,51.249,180.552,59.499,182.052"/>
									</g>
								</g>
								<g style="opacity:0.3;">
									<g>
										<path style="fill:#498B90;" d="M48.866,184.792c-3.498,2.452-6.389,6.08-8.367,9.511c-1.25,2.25-5.25,8.5-4,11
											c0.645,1.292,10.6,6.794,14.627,9.095C52.518,204.275,53.02,194.347,48.866,184.792z"/>
									</g>
									<g>
										<path style="fill:#498B90;" d="M113.499,199.302c-1.238-8.41-4.684-13.392-11.779-16.886
											c-3.926,4.117-3.355,12.953-3.059,17.898c0.238,4.01,0.584,8.32,1.49,12.42c0.346-0.159,0.76-0.311,1.287-0.452
											c2.25-0.5,11.811-2.73,12.811-4.23S113.749,201.052,113.499,199.302z"/>
									</g>
								</g>
							</g>
							<g>
								<path style="fill:#FAB69D;" d="M78.784,234.739c-14.127-3.833-21.553-3.66-31.293-4.013
									c2.797-6.146,3.926-11.462,4.582-18.009c-5.08-1.973-10.17-3.917-15.242-5.911c-2.926,9.786-4.215,20.263-4.971,30.343
									c-0.287,3.863,2.518,8.082,6.691,8.234c12.207,0.441,29.23-0.457,41.438-0.014
									C89.588,245.717,88.143,237.279,78.784,234.739z"/>
							</g>
							<g>
								<path style="fill-rule:evenodd;clip-rule:evenodd;fill:none;stroke:#498B90;stroke-width:6;stroke-miterlimit:10;" d="
									M58.715,181.251c0,0,14.766,15.039,20.807,20.408c4.025-5.369,14.08-20.436,14.08-20.436"/>
								<path style="fill-rule:evenodd;clip-rule:evenodd;fill:none;stroke:#498B90;stroke-width:6;stroke-miterlimit:10;" d="
									M37.569,283.21c16.777,6.04,50.322,2.685,67.1-2.685"/>
								<path style="fill-rule:evenodd;clip-rule:evenodd;fill:none;stroke:#498B90;stroke-width:6;stroke-miterlimit:10;" d="
									M33.897,205.042c5.369,3.355,14.41,5.698,19.779,7.711"/>
								<path style="fill-rule:evenodd;clip-rule:evenodd;fill:none;stroke:#498B90;stroke-width:6;stroke-miterlimit:10;" d="
									M66.463,264.337c-4.166,4.333-9.166,6.333-15,7.167"/>
							</g>
							<g>
								<g>
									<g>
										<g>
											<path style="fill-rule:evenodd;clip-rule:evenodd;fill:#BAE7EC;" d="M75.668,198.057c1.342,13.423,0,28.859,0.67,42.282
												c0.672,16.107,0.438,20.476,0.438,20.476c14.094-0.671,38.488-0.081,38.488-0.081
												c0.291-16.413,2.014-45.899,0.672-62.678C104.528,196.044,87.077,196.044,75.668,198.057"/>
										</g>
										<g>
											<path style="fill-rule:evenodd;clip-rule:evenodd;fill:#31689A;" d="M77.668,200.057c1.342,13.423,0,28.859,0.67,42.282
												c0.672,16.107,0.438,20.476,0.438,20.476c14.094-0.671,38.488-0.081,38.488-0.081
												c0.291-16.413,2.014-45.899,0.672-62.678C106.528,198.044,89.077,198.044,77.668,200.057"/>
										</g>
									</g>
									<g>
										<g>
											<g>
												<path style="fill:#FFFFFF;" d="M97.049,208.672c0,2.667,0,5.334,0,8c0,2.58,4,2.58,4,0c0-2.666,0-5.333,0-8
													C101.049,206.093,97.049,206.093,97.049,208.672L97.049,208.672z"/>
											</g>
										</g>
										<g>
											<g>
												<path style="fill:#FFFFFF;" d="M95.319,214.666c2.666,0,5.333,0,8,0c2.571,0,2.571-3.986,0-3.986c-2.667,0-5.334,0-8,0
													C92.748,210.679,92.748,214.666,95.319,214.666L95.319,214.666z"/>
											</g>
										</g>
									</g>
								</g>
								<g>
									<g>
										<g>
											<path style="fill:#FAB69D;" d="M74.442,243.714c-1.57-3.681-0.537-10.439,5.166-11.357
												c3.861,0.333,8.84-0.828,12.463,0.168c1.719,1.643-4.068,3.572-6.334,4c3.666,0.455,8.228,0.216,9.211,2.496
												c0.977,2.277-7.029,1.664-9.068,1.698c1.818,0.361,7.498,1.496,7.508,2.815c-0.049,2.291-4.469,1.613-8.504,1.588
												c2.215,0.903,5.336,1.286,5.121,2.558c-0.418,2.63-10.66-0.8-11.797-1.297C75.706,245.287,75.706,245.287,74.442,243.714
												"/>
										</g>
										<g>
											<g>
												<path style="fill:#FAB69D;" d="M78.66,226.954c-1.624,3.033-4.513,5.009-6.681,7.617
													c-2.045,2.46,1.472,6.017,3.535,3.535c2.451-2.947,5.621-5.189,7.463-8.629C84.499,226.636,80.183,224.11,78.66,226.954
													L78.66,226.954z"/>
											</g>
										</g>
									</g>
									<g>
										<g>
											<path style="fill:#FAB69D;" d="M122.94,254.855c2.572-2.822,3.768-9.239-1.084-11.86
												c-3.584-0.914-7.707-3.526-11.283-3.768c-2.068,0.939,2.541,4.498,4.449,5.597c-3.447-0.742-7.484-2.394-9.086-0.648
												c-1.598,1.745,5.811,3.711,7.639,4.383c-1.754-0.247-7.229-1.01-7.652,0.177c-0.676,2.079,3.52,2.858,7.164,4.105
												c-2.281,0.117-5.213-0.52-5.42,0.694c-0.449,2.502,9.859,2.631,11.039,2.541
												C121.305,255.876,121.305,255.876,122.94,254.855"/>
										</g>
										<g>
											<g>
												<path style="fill:#FAB69D;" d="M117.264,237.681c0.103,3.436,1.423,6.584,2.089,9.915
													c0.632,3.16,5.451,1.819,4.821-1.329c-0.574-2.867-1.823-5.638-1.911-8.585
													C122.168,234.464,117.168,234.455,117.264,237.681L117.264,237.681z"/>
											</g>
										</g>
									</g>
								</g>
							</g>
						</g>
					</g>
				</g>
				<g>
					<g>
						<g>
							<g>
								<g>
									<path style="fill:#564056;" d="M393.558,415.479c-4.371,9.829-1.348,23.305,12.527,21.383
										c7.4-1.024,5.834-16.848,3.023-22.031"/>
								</g>
								<g>
									<path style="fill:#564056;" d="M444.187,417.53c1.695,5.184,16.43,4.891,19.898,9.273
										c3.258,4.115-2.949,6.678-12.457,6.869c-8.326,0.169-18.172,1.133-23.732-1.574c-5.564-2.494-1.076-10.61-0.971-15.577"/>
								</g>
							</g>
							<g>
								<g>
									<g>
										<path style="fill:#498B90;" d="M444.031,436.558c-1.502-5.038,1.879-14.449,7.391-15.825
											c4.869-1.244,12.897,0.864,16.4,4.814c7.01,7.898-6.756,10.34-12.32,10.393"/>
									</g>
									<g>
										<g>
											<path style="fill:#498B90;" d="M464.904,429.293c-4.417,3.636-11.089,3.872-16.542,4.122
												c-7.336,0.337-14.368-0.823-21.483-2.537c-2.35-0.566-3.347,3.049-0.996,3.615c7.865,1.895,15.521,2.991,23.617,2.619
												c6.249-0.286,13.073-1.066,18.057-5.167C469.424,430.408,466.755,427.77,464.904,429.293L464.904,429.293z"/>
										</g>
									</g>
								</g>
								<g>
									<path style="fill:#498B90;" d="M414.48,433.773c1.125-5.55-0.559-10.915-8.895-10.774
										c-4.395,0.074-15.377-1.002-15.377,8.29C390.208,439.462,413.703,439.922,414.48,433.773"/>
								</g>
							</g>
						</g>
						<g>
							<g>
								<path style="fill-rule:evenodd;clip-rule:evenodd;fill:#61B9C0;" d="M444.662,412c0-28.168,0.633-66.396,1.672-94.544
									c0.182-4.889,4.576-52.313-2.826-52.292c-16.838,0.046-33.717,0.876-50.535,0.876c1.033,27.645,0.188,55.357-0.254,83.007
									c-0.209,13.097-0.674,47.321-0.352,65.805c4.883,0.366,13.768,0.544,18.654,0.591c3.41-22.77,8.211-112.211,9.592-124.282
									c2.709,30.734,2.582,55.013,3.33,84.42c0.236,9.336-0.605,28.986,2.299,38.691"/>
							</g>
							<g>
								<g style="opacity:0.3;">
									<path style="fill-rule:evenodd;clip-rule:evenodd;fill:#498B90;" d="M400.57,343.262
										c-0.189-25.756-0.039-51.52-0.027-77.277c-2.525,0.031-5.049,0.055-7.57,0.055c1.033,27.645,0.188,55.357-0.254,83.007
										c-0.209,13.097-0.674,47.321-0.352,65.805c1.902,0.143,4.414,0.257,7.059,0.345
										C402.027,391.307,400.748,367.253,400.57,343.262z"/>
								</g>
								<g style="opacity:0.3;">
									<path style="fill-rule:evenodd;clip-rule:evenodd;fill:#498B90;" d="M429.72,350.061
										c-0.572-11.139-0.773-22.377-3.58-33.229c-1.711-6.613-3.693-13.135-5.039-19.811c2.207,28.021,2.143,51.046,2.842,78.559
										c0.236,9.336-0.605,28.986,2.299,38.691l5.043-0.622C431.232,392.445,430.81,371.238,429.72,350.061z"/>
								</g>
							</g>
							<g>
								<path style="fill-rule:evenodd;clip-rule:evenodd;fill:none;stroke:#498B90;stroke-width:10;stroke-miterlimit:10;" d="
									M391.431,413.365c7.27,0,14.135,0,21,0"/>
								<path style="fill-rule:evenodd;clip-rule:evenodd;fill:none;stroke:#498B90;stroke-width:10;stroke-miterlimit:10;" d="
									M424.099,412.757c7.057,0,14.941,0,22,0"/>
							</g>
						</g>
					</g>
					<g>
						<g>
							<g>
								<g>
									<g>
										<path style="fill-rule:evenodd;clip-rule:evenodd;fill:#FAB69D;" d="M383.296,245.096
											c0.027-0.895,3.334-12.579,5.889-27.98c-0.342-0.326-0.527-0.811-0.367-1.406c0.664-2.492,1.719-4.853,2.457-7.32
											c-6.51-2.729-12.381-6.439-17.865-10.75c-3.322,13.548-5.625,29.04-6.475,44.855c-0.33,6.145,0.719,29.963,4.359,40.034
											c4.42-0.53,6.004-1.621,10.42-2.166C384.13,270.682,383.236,246.998,383.296,245.096z"/>
									</g>
									<g>
										<path style="fill:#FAB69D;" d="M367.531,303.303c-2.848-0.203-0.129-11.465,0.299-12.725
											c0.94-2.776,2.986-5.152,3.465-8.049c0.131-0.791-0.275-9.123-0.66-9.071c3.156-0.411,6.463-0.719,9.639-0.82
											c0.604,4.678,0.811,7.681,3.744,11.391c1.953,2.467,4.881,7.288,3.844,10.571c-1.906,1.461-3.805-2.986-4.912-3.822
											c0,4.156,1.703,9.371,0.971,13.334c-1.598,1.99-4.191-4.017-4.859-6.399c-0.148,3.96,0.531,8.814-1.816,10.074
											c-2.344,1.257-2.43-7.357-2.654-9.534c-0.217,1.978-0.904,8.153-2.314,8.285c-2.453,0.158-2.137-4.627-2.48-8.941
											C369.033,300.047,368.912,303.416,367.531,303.303z"/>
									</g>
								</g>
								<g>
									<g>
										<path style="fill-rule:evenodd;clip-rule:evenodd;fill:#61B9C0;" d="M452.078,286.574
											c0.111-9.559-5.264-66.127-3.906-78.334c1.459,2.345,3.141,4.591,4.779,6.82c5.625-3.573,9.145-4.871,14.346-9.032
											c-1.502-15.855-7.557-21.545-11.652-24.952c-7.572-6.298-23.853-5.297-32.572-5.628
											c-16.674-0.633-42.895-0.501-46.23,10.012c-2.459,7.614-4.564,16.202-6.221,25.35c6.227,1.96,12.774,2.779,18.752,5.553
											c0.629-2.497,1.326-4.914,2.119-7.192c0.639,17.866-2.217,58.196-3.893,76.957"/>
									</g>
									<g>
										<g style="opacity:0.3;">
											<path style="fill-rule:evenodd;clip-rule:evenodd;fill:#498B90;" d="M391.492,209.169c0.01,0.294,0.018,0.61,0.025,0.916
												c0.781-4.591-0.883-9.522-1.668-14.015c-1.055-6.025-2.27-11.931-3.68-17.874c-4.77,1.554-8.25,3.862-9.328,7.263
												c-2.459,7.614-4.564,16.202-6.221,25.35c6.227,1.96,12.774,2.779,18.752,5.553
												C390.001,213.865,390.699,211.448,391.492,209.169z"/>
										</g>
										<g style="opacity:0.3;">
											<path style="fill-rule:evenodd;clip-rule:evenodd;fill:#498B90;" d="M455.644,181.076
												c-1.666-1.385-3.768-2.401-6.102-3.172c-4.238,9.928-3.145,21.097-0.625,31.483c1.273,1.934,2.664,3.811,4.033,5.673
												c5.625-3.573,9.145-4.871,14.346-9.032C465.794,190.172,459.74,184.483,455.644,181.076z"/>
										</g>
									</g>
								</g>
								<g>
									<path style="fill-rule:evenodd;clip-rule:evenodd;fill:none;stroke:#498B90;stroke-width:6;stroke-miterlimit:10;" d="
										M386.267,285.032c19,0,48.666,0.667,67.332,0.667"/>
									<path style="fill-rule:evenodd;clip-rule:evenodd;fill:none;stroke:#498B90;stroke-width:6;stroke-miterlimit:10;" d="
										M368.458,211.411c0,0,20.85,4.822,21.463,5.026"/>
								</g>
							</g>
							<g>
								<g>
									<g>
										<g>
											<path style="fill-rule:evenodd;clip-rule:evenodd;fill:#254E74;" d="M424.324,194.352
												c1.344,13.423,0,28.859,0.672,42.282c0.67,16.107,0.436,20.477,0.436,20.477c14.094-0.671,38.49-0.081,38.49-0.081
												c0.291-16.413,2.014-45.899,0.672-62.678C453.183,192.338,435.734,192.338,424.324,194.352"/>
										</g>
										<g>
											<path style="fill-rule:evenodd;clip-rule:evenodd;fill:#31689A;" d="M427.324,197.352
												c1.344,13.423,0,28.859,0.672,42.282c0.67,16.107,0.436,20.477,0.436,20.477c14.094-0.671,38.49-0.081,38.49-0.081
												c0.291-16.413,2.014-45.899,0.672-62.678C456.183,195.338,438.734,195.338,427.324,197.352"/>
										</g>
									</g>
									<path style="fill:none;stroke:#BAE7EC;stroke-width:7.4724;stroke-miterlimit:10;" d="M438.794,194.456
										c6.203,0,12.602,0,19,0"/>
								</g>
								<g>
									<g>
										<path style="fill:#FAB69D;" d="M473.271,243.431c3.17-3.227,4.643-10.56-1.338-13.556
											c-4.416-1.044-9.498-4.029-13.908-4.305c-2.547,1.073,3.133,5.141,5.486,6.395c-4.25-0.849-9.227-2.735-11.201-0.739
											c-1.969,1.993,7.162,4.241,9.416,5.009c-2.162-0.282-8.91-1.154-9.434,0.201c-0.832,2.377,4.34,3.268,8.832,4.692
											c-2.81,0.134-6.424-0.594-6.68,0.793c-0.555,2.859,12.15,3.008,13.607,2.904
											C471.257,244.597,471.257,244.597,473.271,243.431"/>
									</g>
									<g>
										<g>
											<path style="fill:#FAB69D;" d="M464.883,224.18c0.559,1.896,1.562,3.473,2.751,5.031
												c1.152,1.511,2.728,3.144,2.828,5.138c0.161,3.208,5.162,3.224,5,0c-0.11-2.182-0.885-4.03-2.114-5.816
												c-1.272-1.849-2.994-3.48-3.643-5.682C468.796,219.765,463.97,221.079,464.883,224.18L464.883,224.18z"/>
										</g>
									</g>
								</g>
							</g>
						</g>
						<g>
							<g>
								<g>
									<g>
										<path style="fill:#FAB69D;" d="M409.289,164.81c0,5.473,0,10.946,0,16.42c0,9.672,20,9.672,20,0c0-5.474,0-10.947,0-16.42
											C429.289,155.136,409.289,155.136,409.289,164.81L409.289,164.81z"/>
									</g>
									<g>
										<path style="fill-rule:evenodd;clip-rule:evenodd;fill:#FAB69D;" d="M396.671,127.48
											c1.109,9.619,0.371,19.609,0.371,29.229c0,10.36,2.219,14.431,13.32,15.17c8.139,0.37,22.199,2.59,28.488-3.7
											c5.922-6.289,2.961-20.72,2.592-28.859c0-3.7-0.371-7.77,0.369-11.471"/>
									</g>
									<g>
										<g>
											<path style="fill-rule:evenodd;clip-rule:evenodd;fill:#FAB69D;" d="M397.32,142.76c-5.039-4.654-8.406-0.592-9,2.664
												c-0.887,6.513,4.057,6.809,9.385,6.809"/>
										</g>
										<g>
											<path style="fill-rule:evenodd;clip-rule:evenodd;fill:#FAB69D;" d="M440.601,142.76c5.039-4.654,8.408-0.592,9,2.664
												c0.887,6.513-4.057,6.809-9.385,6.809"/>
										</g>
									</g>
								</g>
								<g>
									<g>
										<g>
											<g>
												<g>
													<path style="fill:#564056;" d="M428.249,148.165c4.259,0,4.259-6.604,0-6.604
														C423.991,141.561,423.991,148.165,428.249,148.165L428.249,148.165z"/>
												</g>
											</g>
											<g>
												<g>
													<path style="fill:#564056;" d="M412.281,148.385c4.259,0,4.259-6.604,0-6.604S408.022,148.385,412.281,148.385
														L412.281,148.385z"/>
												</g>
											</g>
										</g>
										<g>
											<g>
												<g>
													<path style="fill:#FFFFFF;" d="M427.249,144.963c1.419,0,1.419-2.2,0-2.2
														C425.831,142.763,425.831,144.963,427.249,144.963L427.249,144.963z"/>
												</g>
											</g>
											<g>
												<g>
													<path style="fill:#FFFFFF;" d="M411.281,145.184c1.419,0,1.419-2.2,0-2.2S409.862,145.184,411.281,145.184
														L411.281,145.184z"/>
												</g>
											</g>
										</g>
									</g>
									<g style="opacity:0.6;">
										<path style="fill:#895D38;" d="M422.181,147.943c0,0,0.089,0.12,0.229,0.336c0.064,0.112,0.165,0.232,0.233,0.401
											c0.061,0.178,0.131,0.39,0.19,0.631c0.009,0.239,0.047,0.518-0.023,0.803c-0.044,0.143-0.09,0.29-0.136,0.441
											c-0.061,0.146-0.171,0.272-0.263,0.411c-0.087,0.148-0.226,0.244-0.354,0.357c-0.127,0.121-0.27,0.217-0.432,0.277
											c-0.306,0.166-0.649,0.231-0.987,0.28l-0.513-0.008c-0.168-0.027-0.334-0.067-0.498-0.104
											c-0.168-0.022-0.313-0.123-0.463-0.19c-0.152-0.065-0.289-0.153-0.409-0.264c-0.27-0.182-0.447-0.441-0.604-0.683
											c-0.155-0.24-0.209-0.514-0.29-0.736c-0.028-0.239-0.036-0.457-0.042-0.643c-0.006-0.186,0.056-0.347,0.075-0.475
											c0.059-0.258,0.102-0.395,0.102-0.395s0.035,0.144,0.098,0.395c0.034,0.121,0.044,0.271,0.105,0.427
											c0.067,0.156,0.14,0.325,0.205,0.506c0.124,0.153,0.211,0.34,0.355,0.489c0.15,0.146,0.301,0.292,0.498,0.393
											c0.17,0.137,0.41,0.17,0.618,0.243l0.34,0.059l0.347-0.01c0.225-0.027,0.46-0.055,0.655-0.157
											c0.108-0.034,0.203-0.084,0.286-0.148c0.086-0.06,0.191-0.104,0.247-0.19c0.063-0.079,0.143-0.146,0.203-0.227
											c0.05-0.09,0.098-0.178,0.145-0.264c0.083-0.18,0.108-0.384,0.163-0.567c-0.003-0.184,0.01-0.363,0.02-0.531
											c-0.007-0.17-0.045-0.328-0.058-0.454C422.192,148.092,422.181,147.943,422.181,147.943z"/>
									</g>
									<g>
										<g>
											<path style="fill:#564056;" d="M411.432,155.256c4.122,5.424,13.838,6.195,17.664,0c0.394-0.637-0.607-1.217-0.998-0.584
												c-3.335,5.4-12.064,4.741-15.668,0C411.986,154.087,410.981,154.662,411.432,155.256L411.432,155.256z"/>
										</g>
									</g>
									<g>
										<g>
											<g>
												<path style="fill:#564056;" d="M407.889,140.2c2.202-1.17,4.724-1.22,6.75,0.333c0.592,0.454,1.167-0.551,0.584-0.998
													c-2.346-1.799-5.386-1.679-7.918-0.333C406.647,139.552,407.231,140.55,407.889,140.2L407.889,140.2z"/>
											</g>
										</g>
										<g>
											<g>
												<path style="fill:#564056;" d="M424.557,140.533c2.252-1.604,5.207-2.64,7.631-0.757
													c0.582,0.452,1.406-0.36,0.818-0.817c-2.849-2.212-6.277-1.387-9.033,0.577
													C423.372,139.963,423.948,140.966,424.557,140.533L424.557,140.533z"/>
											</g>
										</g>
									</g>
								</g>
								<g>
									<g>
										<g>
											<path style="fill-rule:evenodd;clip-rule:evenodd;fill:#7D4E24;" d="M442.531,140.583l-1.93,2.177
												c0.217,5.654,1.293,16.708-3.885,20.358c-2.463,1.734-5.625,2.555-8.631,2.217c-1.295-0.145-2.592-0.369-3.787-0.911
												c-1.949-0.884-4.248-2.973-6.514-1.45c-1.318,0.886-2.355,2.229-3.941,2.684c-1.557,0.447-3.164,0.563-4.779,0.437
												c-2.59-0.201-5.514-0.571-7.33-2.665c-3.475-4.006-3.383-17.311-3.803-22.257l-2.111,1.457
												c-1.332,6.65-1.314,19.921,2.088,25.817c3.895,6.75,16.852,0.246,20.02,8.413c0.832-4,7.166-3.833,10.332-4
												c5-0.333,11-2,13.668-6.667C445.093,161.193,442.531,147.172,442.531,140.583z"/>
										</g>
										<g>
											<g>
												<g>
													<path style="fill:#7D4E24;" d="M417.583,151.631c-3.706,0.1-7.398,1.331-8.726,5.133
														c-1.31,3.751-0.521,7.867-0.481,11.742c0.024,2.417,3.774,2.419,3.75,0c-0.026-2.674-0.329-5.339-0.21-8.014
														c0.16-3.598,2.181-5.017,5.667-5.111C419.997,155.316,420.003,151.566,417.583,151.631L417.583,151.631z"/>
												</g>
											</g>
											<g>
												<g>
													<path style="fill:#7D4E24;" d="M423.003,155.381c3.218,0.087,5.239,1.202,5.625,4.532
														c0.327,2.837-0.138,5.748-0.166,8.593c-0.024,2.419,3.726,2.417,3.75,0c0.037-3.741,0.703-7.58-0.311-11.249
														c-1.133-4.105-5.016-5.52-8.898-5.626C420.583,151.566,420.59,155.316,423.003,155.381L423.003,155.381z"/>
												</g>
											</g>
										</g>
									</g>
									<g>
										<g>
											<g>
												<path style="fill-rule:evenodd;clip-rule:evenodd;fill:#7D4E24;" d="M400.732,125.765
													c6.154,7.336,12.438,8.51,19.17,9.832c5.791,1.138,18.994,1.135,14.16-5.861c2.764,2.459,9.844,4.915,12.951,2.08
													c2.592-2.459,0.52-6.051-2.072-6.997c3.627,0,7.6-0.378,7.943-5.294c0.346-4.351-3.279-5.295-6.56-5.295
													c3.629-2.457,4.717-6.317,0.053-9.533c-2.361-1.627-6.268-1.434-8.17,1.969c-0.172-7.753-10.535-8.509-13.643-2.647
													c-3.453-5.674-12.779-4.35-15.023,1.701c-3.279-6.428-13.908-1.89-11.193,5.445"/>
											</g>
											<g>
												<path style="fill-rule:evenodd;clip-rule:evenodd;fill:#7D4E24;" d="M403.093,112.863
													c-7.666-4.834-13.5-0.834-13.166,7.832c0.166,4.834,1.5,9.001,3,13.668c1,2.666,2.832,9.166,4.5,11.5
													c1.166-8.168,5.166-17.834,12.5-21.5"/>
											</g>
											<g>
												<path style="fill-rule:evenodd;clip-rule:evenodd;fill:#7D4E24;" d="M437.419,128.324
													c2.035,5.368,2.205,13.016,3.873,18.016c2-6.333,1.666-13,1.666-19.333"/>
											</g>
										</g>
										<g style="opacity:0.1;">
											<path style="fill:#FFFFFF;" d="M403.701,120.136c0.36,0.507,0.729,1.013,1.137,1.474c0.406,0.461,0.81,0.929,1.26,1.347
												c0.433,0.436,0.904,0.831,1.375,1.219c0.477,0.384,0.972,0.743,1.477,1.085c0.512,0.333,1.027,0.655,1.556,0.954
												c0.523,0.306,1.064,0.582,1.612,0.834c1.096,0.507,2.231,0.917,3.38,1.207c1.147,0.283,2.327,0.429,3.432,0.32
												c0.558-0.037,1.069-0.185,1.547-0.36c0.454-0.214,0.851-0.488,1.147-0.848c0.267-0.38,0.509-0.791,0.591-1.302
												c0.121-0.487,0.129-1.033,0.096-1.58c-0.039-0.55-0.112-1.113-0.257-1.676c-0.107-0.564-0.319-1.123-0.484-1.685
												l-0.007-0.022c-0.153-0.519,0.143-1.063,0.662-1.216c0.465-0.137,0.951,0.088,1.156,0.51
												c0.345,0.706,0.742,1.379,1.212,1.989c0.244,0.296,0.491,0.588,0.766,0.85c0.272,0.262,0.551,0.519,0.856,0.733
												c1.185,0.88,2.699,1.381,4.007,1.08c0.652-0.136,1.205-0.472,1.596-0.953c0.196-0.241,0.35-0.521,0.453-0.835
												c0.103-0.313,0.179-0.649,0.184-1.007c0.023-0.353,0.003-0.723-0.062-1.093c-0.045-0.371-0.153-0.746-0.26-1.118
												c-0.12-0.372-0.252-0.743-0.413-1.109c-0.14-0.373-0.347-0.725-0.517-1.091l-0.037-0.08
												c-0.183-0.394-0.011-0.861,0.383-1.043c0.319-0.148,0.688-0.063,0.913,0.185c0.91,1.005,1.977,1.873,3.158,2.543
												c1.173,0.671,2.49,1.152,3.806,1.201c0.648,0.024,1.309-0.076,1.812-0.404c0.261-0.155,0.447-0.391,0.589-0.656
												c0.15-0.266,0.192-0.591,0.216-0.916c0.011-0.663-0.183-1.35-0.447-2.001c-0.135-0.327-0.278-0.653-0.448-0.968
												c-0.155-0.324-0.355-0.622-0.532-0.937c0.219,0.285,0.462,0.555,0.663,0.856c0.217,0.291,0.409,0.6,0.596,0.916
												c0.346,0.643,0.636,1.341,0.709,2.119c0.015,0.387,0.006,0.799-0.154,1.189c-0.148,0.384-0.393,0.758-0.728,1.014
												c-0.658,0.536-1.483,0.731-2.257,0.789c-1.568,0.061-3.068-0.375-4.438-1.019c-1.371-0.656-2.604-1.569-3.688-2.633
												l1.258-0.938c0.213,0.395,0.459,0.769,0.645,1.186c0.207,0.403,0.381,0.827,0.535,1.263
												c0.144,0.44,0.287,0.885,0.363,1.358c0.095,0.464,0.143,0.952,0.129,1.449c0.005,0.494-0.08,1.006-0.228,1.505
												c-0.146,0.501-0.387,0.989-0.713,1.422c-0.646,0.881-1.64,1.47-2.655,1.689c-1.019,0.244-2.054,0.169-3.002-0.091
												c-0.476-0.128-0.938-0.3-1.369-0.519c-0.438-0.209-0.851-0.461-1.235-0.744c-0.393-0.275-0.753-0.588-1.09-0.919
												c-0.339-0.332-0.64-0.692-0.933-1.059c-0.563-0.747-1.026-1.553-1.418-2.384l1.812-0.728
												c0.182,0.631,0.403,1.241,0.524,1.9c0.156,0.643,0.242,1.318,0.281,2.005c0.018,0.69-0.014,1.403-0.21,2.117
												c-0.15,0.717-0.54,1.418-1.023,2.015c-0.518,0.589-1.18,1.007-1.862,1.29c-0.69,0.239-1.397,0.402-2.084,0.407
												c-1.378,0.055-2.688-0.196-3.932-0.574c-1.245-0.377-2.421-0.916-3.535-1.54c-0.559-0.31-1.103-0.644-1.627-1.005
												c-0.533-0.348-1.029-0.749-1.521-1.148c-0.485-0.409-0.955-0.833-1.402-1.28c-0.443-0.452-0.881-0.906-1.275-1.398
												c-0.409-0.479-0.782-0.986-1.125-1.513C404.277,121.238,403.986,120.691,403.701,120.136z"/>
										</g>
									</g>
								</g>
							</g>
							
								<polyline style="fill-rule:evenodd;clip-rule:evenodd;fill:none;stroke:#498B90;stroke-width:6;stroke-miterlimit:10;" points="
								404.353,175.511 419.117,191.277 434.212,175.84 							"/>
						</g>
					</g>
				</g>
				<g>
					<g>
						<g>
							<g>
								<g>
									<path style="fill:#564056;" d="M161.709,414.643c-4.59,10.322-1.414,24.472,13.154,22.453
										c7.771-1.075,6.125-17.69,3.176-23.133"/>
								</g>
								<g>
									<path style="fill:#564056;" d="M214.772,416.749c1.781,5.442,17.25,5.136,20.893,9.738c3.42,4.322-3.098,7.011-13.08,7.212
										c-8.742,0.178-19.08,1.188-24.92-1.654c-5.842-2.618-1.129-11.141-1.02-16.355"/>
								</g>
							</g>
							<g>
								<g>
									<g>
										<path style="fill:#498B90;" d="M213.032,436.558c-1.502-5.038,1.879-14.449,7.391-15.825
											c4.869-1.244,12.896,0.864,16.4,4.814c7.01,7.898-6.756,10.34-12.32,10.393"/>
									</g>
									<g>
										<g>
											<path style="fill:#498B90;" d="M234.905,429.293c-4.417,3.636-11.089,3.872-16.542,4.122
												c-7.335,0.337-14.368-0.823-21.483-2.537c-2.35-0.566-3.347,3.049-0.997,3.615c7.866,1.895,15.521,2.991,23.618,2.619
												c6.25-0.286,13.073-1.066,18.056-5.167C239.425,430.408,236.756,427.77,234.905,429.293L234.905,429.293z"/>
										</g>
									</g>
								</g>
								<g>
									<path style="fill:#498B90;" d="M182.481,433.773c1.125-5.55-0.559-10.915-8.895-10.774
										c-4.395,0.074-15.377-1.002-15.377,8.29C158.209,439.462,181.704,439.922,182.481,433.773"/>
								</g>
							</g>
						</g>
						<g>
							<g>
								<path style="fill-rule:evenodd;clip-rule:evenodd;fill:#61B9C0;" d="M179.081,416.651
									c1.75-28.04,6.828-86.461,10.402-114.331c1.035,16.782,3.295,84.603,6.637,111.817c5.359-0.022,13.719-0.938,19.078-0.852
									c2.68-28.113,2.242-126.996,1.611-143.036c-15.52-0.812-31.623,0.931-46.992-1.288c-13.092-1.889-8.471,17.991-8.891,26.03
									c-1.66,31.754,0.438,87.815-0.16,119.618"/>
							</g>
							<g>
								<g style="opacity:0.3;">
									<path style="fill-rule:evenodd;clip-rule:evenodd;fill:#498B90;" d="M166.311,415.228
										c0.039-25.042,0.268-50.086,0.934-75.119c0.363-13.67,0.691-27.329,1.662-40.974c0.393-5.525,0.803-11.122,1.619-16.603
										c0.404-2.716,0.699-5.661,1.725-8.23c0.646-1.62,1.383-3.185,1.844-4.833c-1.43-0.143-2.857-0.304-4.277-0.509
										c-13.092-1.889-8.471,17.991-8.891,26.03c-1.66,31.754,0.438,87.815-0.16,119.618L166.311,415.228z"/>
								</g>
								<g style="opacity:0.3;">
									<path style="fill-rule:evenodd;clip-rule:evenodd;fill:#498B90;" d="M189.635,304.987
										c1.096,20.343,3.299,83.203,6.484,109.15c0.943-0.004,1.982-0.036,3.076-0.085c0.01-17.443,0.918-34.898,0.086-52.329
										C198.36,342.385,194.264,323.71,189.635,304.987z"/>
								</g>
							</g>
							<g>
								<path style="fill-rule:evenodd;clip-rule:evenodd;fill:none;stroke:#498B90;stroke-width:10.5;stroke-miterlimit:10;" d="
									M159.477,413.476c7.633,0,14.842,0,22.049,0"/>
								<path style="fill-rule:evenodd;clip-rule:evenodd;fill:none;stroke:#498B90;stroke-width:10.5;stroke-miterlimit:10;" d="
									M193.778,412.836c7.41,0,15.689,0,23.1,0"/>
							</g>
						</g>
					</g>
					<g>
						<g>
							<g>
								<g>
									<path style="fill-rule:evenodd;clip-rule:evenodd;fill:#FAB69D;" d="M141.504,195.279
										c-6.303,11.952-12.064,23.371-13.002,40.846c-0.348,6.453,11.976,25.314,17.779,34.912
										c4.641-0.557,9.221-10.81,9.221-10.81c-2.408-5.832-9.369-22.186-8.805-24.102c0,0,3.664-10.443,11.842-25.105"/>
								</g>
								<g>
									<path style="fill-rule:evenodd;clip-rule:evenodd;fill:#FAB69D;" d="M220.055,210.042
										c6.531,10.498,14.574,21.8,14.574,21.8c-2.84,4.797-11.623,27.077-11.977,28.384c4.49,4.478,3.426,7.142,8.643,10.743
										c11.5-10.564,24.777-35.245,20.418-44.204c-3.414-7.011-7.672-17.8-12.52-27.383"/>
								</g>
							</g>
							<g>
								<g>
									<path style="fill-rule:evenodd;clip-rule:evenodd;fill:#61B9C0;" d="M242.795,206.895
										c-4.691-10.23-10.086-20.537-15.895-25.374c-7.947-6.617-25.047-5.563-34.201-5.91
										c-17.508-0.664-40.293-1.805-46.441,10.514c-2.787,5.579-5.67,10.736-8.291,16.033
										c5.031,5.915,10.572,11.055,17.613,14.723c1.07-1.642,2.361-3.548,3.959-5.861c0.672,18.76-3.051,65.266-3.836,84.906
										c9.1,0.691,23.234-0.273,32.35-0.18c9.152,0.094,23.344,0.592,32.494,0.725c0.34-5.63-1.008-34.519-1.643-44.076
										c-0.689-10.396-0.656-28.901,0.15-42.352c1.424,2.288,3.135,4.462,4.857,6.605
										C230.504,214.658,237.282,211.321,242.795,206.895z"/>
								</g>
								<g>
									<g style="opacity:0.3;">
										<path style="fill-rule:evenodd;clip-rule:evenodd;fill:#498B90;" d="M158.438,196.012
											c-0.428-6.066-1.123-11.893-3.643-17.346c-3.82,1.644-6.826,4.027-8.537,7.458c-2.787,5.579-5.67,10.736-8.291,16.033
											c5.031,5.915,10.572,11.055,17.613,14.723c1.045-1.605,2.307-3.468,3.857-5.712
											C159.674,206.139,158.786,200.956,158.438,196.012z"/>
									</g>
									<g style="opacity:0.3;">
										<path style="fill-rule:evenodd;clip-rule:evenodd;fill:#498B90;" d="M226.901,181.521
											c-1.205-1.003-2.637-1.811-4.201-2.492c-3.66,10.248-4.16,21.239-2.98,32.023c1.279,1.92,2.727,3.771,4.193,5.596
											c6.592-1.989,13.369-5.326,18.883-9.752C238.104,196.665,232.709,186.358,226.901,181.521z"/>
									</g>
								</g>
							</g>
							<g>
								<path style="fill-rule:evenodd;clip-rule:evenodd;fill:none;stroke:#498B90;stroke-width:6;stroke-miterlimit:10;" d="
									M154.354,294.775c19.951,0,47.549,0.701,67.148,0.701"/>
								<g>
									<path style="fill-rule:evenodd;clip-rule:evenodd;fill:none;stroke:#498B90;stroke-width:6;stroke-miterlimit:10;" d="
										M135.573,202.686c4.793,5.369,14.738,11.409,22.121,14.094"/>
									<path style="fill-rule:evenodd;clip-rule:evenodd;fill:none;stroke:#498B90;stroke-width:6;stroke-miterlimit:10;" d="
										M222.151,217.451c7.381-2.014,15.764-7.383,21.805-12.08"/>
								</g>
							</g>
							<g>
								<g>
									<g>
										<path style="fill:#BAE7EC;" d="M145.79,269.515c-0.02-5.214,5.297-11.358,12.432-8.971
											c4.355,2.717,10.764,4.385,14.512,7.729c1.205,2.943-6.529,1.681-9.396,0.805c4.07,2.745,9.531,5.227,9.557,8.465
											c0.02,3.228-9.057-2.323-11.463-3.519c1.953,1.521,8.045,6.27,7.404,7.807c-1.193,2.621-6.035-0.836-10.75-3.307
											c2.15,2.389,5.617,4.719,4.734,6.062c-1.789,2.796-12.09-7.374-13.174-8.637
											C147.254,273.167,146.493,272.103,145.79,269.515"/>
									</g>
									<g>
										<path style="fill:#BAE7EC;" d="M160.534,255.016c-3.395,2.336-7.035,4.274-10.5,6.498
											c-2.705,1.734-0.199,6.064,2.523,4.316c3.465-2.224,7.105-4.161,10.5-6.498
											C165.694,257.518,163.196,253.182,160.534,255.016L160.534,255.016z"/>
									</g>
								</g>
								<g>
									<g>
										<path style="fill:#BAE7EC;" d="M232.893,269.515c0.02-5.214-5.297-11.358-12.432-8.971
											c-4.354,2.717-10.764,4.385-14.512,7.729c-1.203,2.943,6.529,1.681,9.396,0.805c-4.068,2.745-9.531,5.227-9.557,8.465
											c-0.018,3.228,9.057-2.323,11.465-3.519c-1.955,1.521-8.045,6.27-7.404,7.807c1.191,2.621,6.033-0.836,10.748-3.307
											c-2.15,2.389-5.617,4.719-4.734,6.062c1.789,2.796,12.09-7.374,13.174-8.637
											C231.428,273.167,232.19,272.103,232.893,269.515"/>
									</g>
									<g>
										<path style="fill:#BAE7EC;" d="M218.151,255.016c3.393,2.336,7.033,4.274,10.5,6.498c2.703,1.734,0.199,6.064-2.523,4.316
											c-3.467-2.224-7.107-4.161-10.5-6.498C212.991,257.518,215.487,253.182,218.151,255.016L218.151,255.016z"/>
									</g>
								</g>
							</g>
						</g>
						<g>
							<g>
								<g>
									<g>
										<path style="fill:#FAB69D;" d="M198.227,179.938v-15.497c0-10.156-19-10.156-19,0v14.588
											C185.553,179.458,191.881,179.821,198.227,179.938z"/>
									</g>
									<g>
										<path style="fill-rule:evenodd;clip-rule:evenodd;fill:#FAB69D;" d="M164.979,123.246
											c1.166,10.101,0.389,22.59,0.389,32.691c0,10.877,2.33,15.15,13.986,15.928c8.547,0.389,23.311,2.719,29.914-3.885
											c6.217-6.604,3.109-21.756,2.721-30.303c0-3.885-0.389-10.158,0.389-14.043"/>
									</g>
									<g>
										<g>
											<path style="fill-rule:evenodd;clip-rule:evenodd;fill:#FAB69D;" d="M166.663,143.018
												c-5.293-4.887-8.83-2.301-9.451,1.118c-0.932,6.837,4.26,7.148,9.853,7.148"/>
										</g>
										<g>
											<path style="fill-rule:evenodd;clip-rule:evenodd;fill:#FAB69D;" d="M211.108,143.018
												c5.291-4.887,8.828-2.301,9.449,1.118c0.932,6.837-4.26,7.148-9.854,7.148"/>
										</g>
									</g>
								</g>
								<g>
									<g style="opacity:0.6;">
										<path style="fill:#895D38;" d="M191.764,146.732c0,0,0.092,0.127,0.237,0.355c0.066,0.118,0.17,0.245,0.241,0.423
											c0.062,0.187,0.133,0.408,0.194,0.661c0.007,0.25,0.046,0.541-0.027,0.837c-0.047,0.149-0.095,0.303-0.143,0.459
											c-0.063,0.151-0.178,0.282-0.274,0.427c-0.091,0.154-0.235,0.253-0.37,0.371c-0.132,0.125-0.281,0.225-0.449,0.288
											c-0.319,0.173-0.676,0.241-1.029,0.29l-0.534-0.008c-0.175-0.028-0.348-0.07-0.519-0.108
											c-0.175-0.022-0.326-0.128-0.482-0.197c-0.16-0.067-0.302-0.159-0.427-0.273c-0.282-0.189-0.466-0.459-0.631-0.71
											c-0.163-0.25-0.22-0.535-0.307-0.767c-0.03-0.249-0.04-0.476-0.048-0.671c-0.008-0.195,0.055-0.363,0.074-0.498
											c0.059-0.27,0.102-0.415,0.102-0.415s0.036,0.15,0.098,0.414c0.034,0.127,0.043,0.285,0.106,0.45
											c0.069,0.164,0.144,0.343,0.212,0.534c0.13,0.163,0.22,0.361,0.371,0.52c0.159,0.155,0.317,0.312,0.526,0.42
											c0.091,0.071,0.196,0.122,0.315,0.151c0.117,0.027,0.216,0.102,0.34,0.109l0.36,0.063l0.369-0.01
											c0.239-0.029,0.489-0.059,0.696-0.168c0.115-0.037,0.215-0.09,0.304-0.159c0.091-0.064,0.204-0.111,0.262-0.204
											c0.068-0.084,0.152-0.157,0.215-0.243c0.052-0.096,0.103-0.19,0.152-0.281c0.086-0.192,0.111-0.408,0.167-0.602
											c-0.004-0.194,0.007-0.383,0.016-0.56c-0.01-0.179-0.051-0.344-0.065-0.476
											C191.777,146.888,191.764,146.732,191.764,146.732z"/>
									</g>
									<g>
										<g>
											<path style="fill:#564056;" d="M180.573,155.167c4.424,4.076,14.143,4.775,18.358,0c0.516-0.585-0.339-1.446-0.858-0.858
												c-3.761,4.26-12.684,3.646-16.642,0C180.857,153.779,179.996,154.636,180.573,155.167L180.573,155.167z"/>
										</g>
									</g>
									<g>
										<g>
											<g>
												<path style="fill:#564056;" d="M176.758,138.602c2.312-1.229,4.96-1.281,7.087,0.35
													c0.621,0.477,1.225-0.579,0.612-1.048c-2.462-1.888-5.654-1.763-8.312-0.35
													C175.454,137.921,176.067,138.969,176.758,138.602L176.758,138.602z"/>
											</g>
										</g>
										<g>
											<g>
												<path style="fill:#564056;" d="M194.258,138.951c2.366-1.684,5.468-2.773,8.015-0.795
													c0.61,0.474,1.476-0.378,0.858-0.858c-2.991-2.323-6.591-1.456-9.485,0.605
													C193.013,138.353,193.619,139.407,194.258,138.951L194.258,138.951z"/>
											</g>
										</g>
									</g>
									<g>
										<g>
											<path style="fill:#564056;" d="M194.588,144.933c0,0-0.011-0.212,0.027-0.545c0.017-0.169,0.031-0.355,0.163-0.602
												c0.118-0.23,0.259-0.545,0.493-0.762c0.117-0.12,0.238-0.244,0.364-0.374c0.145-0.102,0.301-0.205,0.47-0.3
												c0.33-0.217,0.725-0.299,1.12-0.378c0.397-0.033,0.805-0.017,1.185,0.075c0.392,0.063,0.747,0.19,1.109,0.281
												c0.711,0.21,1.37,0.471,1.963,0.752c0.592,0.274,1.123,0.56,1.577,0.795c0.906,0.47,1.525,0.751,1.525,0.751l-0.05,0.211
												c0,0-0.703-0.035-1.722-0.23c-1.021-0.168-2.36-0.473-3.608-0.573c-0.307-0.006-0.622-0.017-0.899,0.042
												c-0.289,0.035-0.535,0.105-0.772,0.135c-0.22,0.053-0.452,0.044-0.643,0.094c-0.207,0.025-0.407,0.06-0.596,0.121
												c-0.213,0.04-0.355,0.109-0.535,0.164c-0.178,0.033-0.353,0.155-0.499,0.234c-0.293,0.161-0.492,0.23-0.492,0.23
												L194.588,144.933z"/>
										</g>
										<g>
											<path style="fill:#564056;" d="M184.973,145.054c0,0-0.195-0.063-0.48-0.213c-0.142-0.072-0.311-0.189-0.484-0.22
												c-0.176-0.051-0.311-0.117-0.515-0.157c-0.183-0.057-0.373-0.096-0.569-0.123c-0.181-0.053-0.4-0.047-0.602-0.107
												c-0.222-0.033-0.448-0.114-0.717-0.157c-0.257-0.07-0.554-0.068-0.843-0.074c-1.179,0.055-2.456,0.321-3.426,0.479
												c-0.968,0.181-1.634,0.235-1.634,0.235l-0.059-0.209c0,0,0.577-0.303,1.442-0.758c0.431-0.231,0.94-0.506,1.509-0.767
												c0.572-0.266,1.208-0.508,1.896-0.696c0.352-0.078,0.696-0.195,1.077-0.244c0.368-0.08,0.764-0.079,1.145-0.037
												c0.378,0.093,0.753,0.185,1.061,0.406c0.157,0.098,0.305,0.198,0.437,0.305c0.116,0.126,0.229,0.248,0.336,0.366
												c0.215,0.213,0.342,0.521,0.45,0.742c0.119,0.238,0.127,0.418,0.141,0.581c0.029,0.321,0.014,0.526,0.014,0.526
												L184.973,145.054z"/>
										</g>
									</g>
								</g>
								<g>
									<g>
										<g>
											<path style="fill-rule:evenodd;clip-rule:evenodd;fill:#432918;" d="M171.149,114.778
												c2.1,15.226,25.025,18.899,37.1,16.976c1.924-0.176,15.061-3.109,16-4.551c0,0-7.594-8.109-8.143-8.67
												c-1.119-1.145-6.283-6.555-8.559-9.705c-6.648-8.574-17.148-10.149-28.174-6.299
												C175.174,103.928,171.129,105.853,171.149,114.778"/>
										</g>
										<g>
											<path style="fill-rule:evenodd;clip-rule:evenodd;fill:#432918;" d="M178.149,123.353
												c-2.975,6.125-8.926,13.301-12.076,19.426c-2.273-4.726-5.432-12.105-7.523-18.201
												c-2.354-6.854-0.176-11.199,2.799-14.525c2.977-3.674,12.426-3.85,14.525,0.701"/>
										</g>
										<g>
											<path style="fill-rule:evenodd;clip-rule:evenodd;fill:#432918;" d="M207.196,130.178
												c0.699,4.55,3.643,8.681,5.217,12.881c1.4-4.726,2.484-12.006,1.434-16.905"/>
										</g>
									</g>
									<g style="opacity:0.1;">
										<path style="fill:#FFFFFF;" d="M181.553,116.11l1.184,1.146l1.236,1.056l1.298,0.975l1.352,0.887l1.393,0.807
											c0.481,0.24,0.953,0.492,1.437,0.721l1.47,0.639l1.498,0.563l1.526,0.477l1.545,0.402l1.561,0.326l1.574,0.241
											l1.583,0.159l1.586,0.091l1.587,0.003l1.583-0.087l-0.626,1.692c-0.657-0.72-1.296-1.457-1.937-2.191l-1.667-2.387
											c-0.484-0.837-0.948-1.687-1.404-2.538c-0.391-0.882-0.763-1.772-1.142-2.657c-0.189-0.44,0.015-0.95,0.455-1.139
											c0.291-0.125,0.614-0.078,0.853,0.096l0.011,0.008l1.683,1.231l1.708,1.18l1.758,1.088l1.814,0.984l1.888,0.834
											c0.65,0.219,1.3,0.462,1.962,0.667c0.672,0.152,1.345,0.339,2.03,0.483l2.086,0.298l-2.125,0.064
											c-0.708-0.045-1.418-0.122-2.133-0.193c-0.703-0.126-1.401-0.293-2.108-0.441c-0.69-0.197-1.367-0.441-2.054-0.664
											l-1.988-0.844l-1.908-0.999l-1.845-1.095l-1.785-1.172l1.319-1.035c0.396,0.821,0.782,1.645,1.182,2.46l1.377,2.345
											l1.581,2.199c0.603,0.667,1.207,1.331,1.792,2.013l0.073,0.085c0.35,0.408,0.304,1.023-0.104,1.374
											c-0.173,0.148-0.383,0.226-0.594,0.234l-1.697,0.07l-1.696-0.026l-1.691-0.12l-1.678-0.23l-1.66-0.325l-1.639-0.414
											c-0.54-0.158-1.076-0.336-1.609-0.513l-1.572-0.612l-1.533-0.699c-0.503-0.249-0.99-0.531-1.482-0.799
											c-0.482-0.287-0.951-0.597-1.424-0.893c-0.461-0.317-0.912-0.649-1.358-0.983l-1.278-1.08
											c-0.407-0.38-0.8-0.775-1.191-1.167l-1.093-1.259L181.553,116.11z"/>
									</g>
								</g>
							</g>
							<path style="fill-rule:evenodd;clip-rule:evenodd;fill:none;stroke:#498B90;stroke-width:6;stroke-miterlimit:10;" d="
								M174.495,174.169c4.529,5.769,9.725,11.066,15.094,14.423c4.027-4.698,8.725-9.396,12.752-14.095"/>
							<g>
								<g>
									<path style="fill:#BAE7EC;" d="M207.59,173.039l-2.805-0.052c0.064,5.457,0.412,10.925-0.262,16.357
										c-0.055,0.445-0.496,0.645-0.854,0.354c-4.094-3.333-9.098-6.15-14.5-6.363c-5.422-0.213-10.215,1.767-14.418,5.113
										c-0.334,0.267-0.838,0.113-0.854-0.354c-0.18-5.23,0.453-10.455,0.068-15.678l-2.635-0.049
										c-2.266,17.449-4.531,32.215,21.152,30.201C212.124,200.555,207.59,187.133,207.59,173.039z"/>
								</g>
								<g>
									<g>
										<path style="fill:#67BCCF;" d="M175.774,192.286c0,0,0.408,0.145,1.108,0.423c0.35,0.14,0.795,0.235,1.285,0.381
											c0.489,0.145,1.081,0.219,1.693,0.367c1.255,0.208,2.722,0.413,4.31,0.517c0.792,0.074,1.614,0.091,2.449,0.132
											c0.834,0.043,1.685,0.038,2.534,0.048c0.85-0.007,1.701,0.011,2.538-0.027c0.837-0.024,1.662-0.04,2.46-0.083
											c1.596-0.071,3.085-0.178,4.362-0.284c0.635-0.073,1.226-0.099,1.743-0.163c0.518-0.061,0.974-0.099,1.344-0.157
											c0.742-0.108,1.174-0.155,1.174-0.155s-0.404,0.149-1.124,0.383c-0.725,0.208-1.765,0.519-3.038,0.773
											c-0.635,0.134-1.328,0.25-2.063,0.369c-0.736,0.094-1.512,0.226-2.321,0.288c-0.808,0.075-1.643,0.162-2.495,0.187
											c-0.851,0.051-1.718,0.05-2.584,0.068c-1.733-0.036-3.469-0.097-5.085-0.331c-0.811-0.078-1.585-0.25-2.32-0.382
											c-0.733-0.151-1.419-0.338-2.045-0.517c-0.622-0.215-1.191-0.382-1.679-0.615c-0.484-0.231-0.918-0.4-1.241-0.593
											C176.134,192.524,175.774,192.286,175.774,192.286z"/>
									</g>
									<g>
										<path style="fill:#67BCCF;" d="M179.024,189.286c0,0,1.172-0.306,2.943-0.607c0.889-0.143,1.911-0.349,3.045-0.4
											c1.128-0.087,2.336-0.134,3.544-0.185c1.207,0.074,2.415,0.165,3.541,0.283c0.564,0.054,1.109,0.098,1.612,0.237
											c0.507,0.11,0.984,0.23,1.423,0.341c1.757,0.437,2.891,0.831,2.891,0.831s-1.221,0.001-2.996-0.15
											c-0.444-0.035-0.924-0.075-1.429-0.133c-0.503-0.078-1.043-0.05-1.595-0.073c-1.108-0.014-2.283-0.087-3.459-0.136
											c-1.178,0.025-2.356,0.054-3.465,0.038c-0.553,0.001-1.091-0.023-1.606,0.006c-0.513,0.02-1,0.022-1.449,0.025
											C180.23,189.38,179.024,189.286,179.024,189.286z"/>
									</g>
									<g>
										<path style="fill:#67BCCF;" d="M179.274,197.536c0,0,0.307,0.057,0.843,0.155c0.266,0.056,0.589,0.125,0.96,0.203
											c0.185,0.042,0.381,0.086,0.587,0.132c0.208,0.023,0.425,0.046,0.653,0.071c0.453,0.048,0.939,0.1,1.446,0.171
											c0.504,0.08,1.07,0.04,1.631,0.088c0.567,0.028,1.149,0.066,1.749,0.041c0.597-0.008,1.204-0.016,1.81-0.024
											c1.216-0.074,2.433-0.107,3.579-0.213c1.149-0.084,2.223-0.163,3.143-0.229c1.848-0.133,3.1-0.146,3.1-0.146
											s-1.182,0.41-2.997,0.827c-0.907,0.217-1.972,0.437-3.13,0.599c-0.578,0.084-1.173,0.19-1.789,0.22
											c-0.614,0.046-1.238,0.094-1.861,0.141c-0.628-0.006-1.256-0.012-1.875-0.018c-0.618,0.02-1.226-0.087-1.813-0.148
											c-0.588-0.079-1.15-0.113-1.686-0.256c-0.535-0.128-1.035-0.266-1.491-0.393c-0.228-0.065-0.448-0.119-0.651-0.184
											c-0.193-0.087-0.377-0.169-0.549-0.246c-0.344-0.159-0.643-0.297-0.89-0.412
											C179.553,197.674,179.274,197.536,179.274,197.536z"/>
									</g>
								</g>
							</g>
						</g>
					</g>
				</g>
			</g>
		</g>
		<g>
			<rect x="149.329" y="49.608" style="fill-rule:evenodd;clip-rule:evenodd;fill:none;" width="201.342" height="25.839"/>
			<text transform="matrix(1 0 0 1 151.5708 70.5777)" style="fill:#61B9C0; font-family:'Metropolis-Regular'; font-size:30px;">nurse team</text>
			<g>
				<g>
					<g>
						<path style="fill:#61B9C0;" d="M144.499,62.762c4.172,0,4.172-6.47,0-6.47C140.328,56.292,140.328,62.762,144.499,62.762
							L144.499,62.762z"/>
					</g>
				</g>
				<g>
					<g>
						<path style="fill:#61B9C0;" d="M355.499,62.762c4.172,0,4.172-6.47,0-6.47C351.328,56.292,351.328,62.762,355.499,62.762
							L355.499,62.762z"/>
					</g>
				</g>
			</g>
			<path style="fill:none;stroke:#61B9C0;stroke-width:2;stroke-miterlimit:10;" d="M370.794,59.527
				c0,10.564-8.565,19.128-19.128,19.128H148.333c-10.564,0-19.128-8.563-19.128-19.128l0,0c0-10.565,8.564-19.128,19.128-19.128
				h203.334C362.23,40.399,370.794,48.962,370.794,59.527L370.794,59.527z"/>
		</g>
	</g>
</g>
<g id="DESIGNED_BY_FREEPIK">
	<g>
		<g id="XMLID_225_">
			<g id="XMLID_244_">
				<path id="XMLID_252_" style="fill:#A3B5C4;" d="M260.103,465.465c-0.432,0.443-0.803,0.932-1.107,1.453l-0.465-0.24
					c-0.068-0.297-0.35-0.502-0.66-0.467c-0.33,0.039-0.566,0.34-0.529,0.67c0.039,0.332,0.34,0.568,0.67,0.529
					c0.066-0.008,0.127-0.025,0.184-0.053l0.451,0.234c-0.25,0.555-0.432,1.139-0.539,1.744l0.748,0.131
					c0.229-1.305,0.85-2.506,1.791-3.473L260.103,465.465z"/>
				<path id="XMLID_251_" style="fill:#A3B5C4;" d="M265.591,463.165c-0.172,0-0.342,0.006-0.51,0.016l-0.074-0.625
					c0.188-0.15,0.297-0.389,0.266-0.645c-0.045-0.393-0.402-0.674-0.795-0.629c-0.393,0.047-0.674,0.402-0.627,0.797
					c0.029,0.254,0.189,0.461,0.404,0.563l0.072,0.625c-0.713,0.115-1.402,0.332-2.059,0.645l0.326,0.685
					c0.933-0.447,1.941-0.674,2.996-0.674c0.496,0,0.992,0.053,1.475,0.158l0.16-0.742
					C266.691,463.223,266.142,463.165,265.591,463.165z"/>
				<path id="XMLID_250_" style="fill:#A3B5C4;" d="M272.193,465.711c0.332-0.041,0.566-0.342,0.525-0.672
					c-0.039-0.332-0.34-0.566-0.672-0.525c-0.309,0.037-0.535,0.303-0.529,0.607l-0.416,0.363c-0.418-0.43-0.891-0.813-1.408-1.139
					l-0.404,0.641c1.135,0.715,2.021,1.727,2.564,2.926l0.689-0.313c-0.25-0.555-0.566-1.072-0.941-1.545l0.402-0.352
					C272.064,465.715,272.128,465.719,272.193,465.711z"/>
				<path id="XMLID_249_" style="fill:#A3B5C4;" d="M265.044,473.372c-0.387,0.023-0.775,0.035-1.158,0.035
					c-0.879,0-1.733-0.061-2.478-0.18c-0.391-0.061-0.846-0.154-1.27-0.291c1.047,1.861,3.068,3.125,5.389,3.125
					c2.855,0,5.262-1.916,5.949-4.504c-0.682,0.449-1.506,0.826-2.459,1.123C267.837,473.047,266.462,473.288,265.044,473.372z"/>
				<path id="XMLID_245_" style="fill:#A3B5C4;" d="M265.591,464.68c-3.351,0-6.08,2.666-6.08,5.943c0,0.426,0.047,0.85,0.137,1.262
					c0.674,0.482,2.707,0.891,5.348,0.73c2.881-0.174,5.297-0.957,6.672-2.158c-0.004-0.195-0.02-0.391-0.045-0.582
					C271.244,466.915,268.65,464.68,265.591,464.68z M263.431,471.196c-1.02,0-1.85-0.83-1.85-1.85c0-1.021,0.83-1.852,1.85-1.852
					s1.85,0.83,1.85,1.852C265.281,470.366,264.451,471.196,263.431,471.196z M268.169,470.288c-0.75,0-1.361-0.611-1.361-1.361
					s0.611-1.359,1.361-1.359s1.359,0.609,1.359,1.359S268.919,470.288,268.169,470.288z"/>
			</g>
			<path id="XMLID_242_" style="fill:#A3B5C4;" d="M281.595,466.547c-0.295-0.115-0.807-0.309-1.383-0.238
				c-0.551,0.07-0.844,0.342-0.844,1.008v0.865h2.229v1.717h-2.229v5.455h-1.932v-5.455h-1.34v-1.717h1.34v-0.889
				c0-1.68,0.895-2.781,2.568-2.781c0.643,0,1.156,0.121,1.59,0.307V466.547z"/>
			<path id="XMLID_240_" style="fill:#A3B5C4;" d="M286.296,469.879c-0.176-0.029-0.357-0.047-0.525-0.047
				c-0.897,0-1.51,0.549-1.51,1.613v3.908h-1.932v-7.172h1.873v0.785c0.451-0.674,1.139-0.977,2.02-0.977
				c0.414,0,0.848,0.127,1.094,0.336L286.296,469.879z"/>
			<path id="XMLID_237_" style="fill:#A3B5C4;" d="M293.964,471.758c0,0.221-0.016,0.488-0.037,0.65h-5.084
				c0.207,1.037,0.932,1.488,1.842,1.488c0.623,0,1.295-0.252,1.814-0.69l1.133,1.244c-0.814,0.748-1.852,1.088-3.059,1.088
				c-2.197,0-3.723-1.496-3.723-3.752c0-2.258,1.48-3.797,3.627-3.797C292.542,467.991,293.957,469.522,293.964,471.758z
				 M288.849,471.092h3.176c-0.178-0.918-0.732-1.438-1.561-1.438C289.552,469.655,289.021,470.204,288.849,471.092z"/>
			<path id="XMLID_234_" style="fill:#A3B5C4;" d="M301.619,471.758c0,0.221-0.016,0.488-0.037,0.65h-5.086
				c0.207,1.037,0.934,1.488,1.844,1.488c0.621,0,1.295-0.252,1.813-0.69l1.133,1.244c-0.814,0.748-1.85,1.088-3.057,1.088
				c-2.199,0-3.723-1.496-3.723-3.752c0-2.258,1.48-3.797,3.627-3.797C300.197,467.991,301.611,469.522,301.619,471.758z
				 M296.503,471.092h3.176c-0.178-0.918-0.734-1.438-1.563-1.438C297.207,469.655,296.673,470.204,296.503,471.092z"/>
			<path id="XMLID_231_" style="fill:#A3B5C4;" d="M309.962,471.764c0,2.154-1.494,3.775-3.471,3.775
				c-0.961,0-1.643-0.377-2.109-0.932v3.707h-1.924v-10.133h1.887v0.793c0.467-0.586,1.154-0.984,2.139-0.984
				C308.468,467.991,309.962,469.612,309.962,471.764z M304.287,471.764c0,1.133,0.748,1.977,1.842,1.977
				c1.141,0,1.852-0.881,1.852-1.977c0-1.094-0.711-1.975-1.852-1.975C305.035,469.79,304.287,470.633,304.287,471.764z"/>
			<path id="XMLID_228_" style="fill:#A3B5C4;" d="M313.066,465.836c0,0.695-0.539,1.229-1.234,1.229
				c-0.697,0-1.229-0.533-1.229-1.229c0-0.695,0.531-1.244,1.229-1.244C312.527,464.592,313.066,465.141,313.066,465.836z
				 M312.808,475.354h-1.932v-7.172h1.932V475.354z"/>
			<path id="XMLID_226_" style="fill:#A3B5C4;" d="M316.031,470.737l2.703-2.555h2.367l-3.479,3.375l3.502,3.797h-2.377l-2.717-2.9
				v2.9h-1.932v-10.658h1.932V470.737z"/>
		</g>
		<g>
			<path style="fill:#A3B5C4;" d="M184.412,475.29v-1.055c-0.527,0.719-1.391,1.23-2.387,1.23c-1.846,0-3.15-1.406-3.15-3.705
				c0-2.256,1.289-3.721,3.15-3.721c0.951,0,1.816,0.469,2.387,1.244v-3.764h1.1v9.77H184.412z M184.412,473.372v-3.209
				c-0.395-0.615-1.244-1.143-2.124-1.143c-1.421,0-2.271,1.172-2.271,2.74c0,1.566,0.85,2.725,2.271,2.725
				C183.167,474.485,184.017,473.987,184.412,473.372z"/>
			<path style="fill:#A3B5C4;" d="M186.931,471.745c0-2.051,1.465-3.705,3.486-3.705c2.139,0,3.398,1.67,3.398,3.793v0.279h-5.728
				c0.088,1.332,1.025,2.445,2.549,2.445c0.806,0,1.626-0.322,2.183-0.893l0.527,0.717c-0.703,0.703-1.655,1.084-2.813,1.084
				C188.44,475.465,186.931,473.957,186.931,471.745z M190.403,468.948c-1.509,0-2.256,1.273-2.314,2.357h4.644
				C192.717,470.25,192.014,468.948,190.403,468.948z"/>
			<path style="fill:#A3B5C4;" d="M194.607,474.352l0.57-0.791c0.469,0.543,1.363,1.012,2.329,1.012
				c1.085,0,1.671-0.514,1.671-1.217c0-1.713-4.381-0.658-4.381-3.281c0-1.098,0.952-2.035,2.637-2.035
				c1.201,0,2.051,0.453,2.623,1.025l-0.514,0.762c-0.424-0.514-1.201-0.895-2.109-0.895c-0.967,0-1.566,0.484-1.566,1.113
				c0,1.553,4.379,0.527,4.379,3.281c0,1.188-0.951,2.139-2.783,2.139C196.306,475.465,195.324,475.114,194.607,474.352z"/>
			<path style="fill:#A3B5C4;" d="M201.476,466.471c0-0.41,0.338-0.746,0.732-0.746c0.41,0,0.747,0.336,0.747,0.746
				c0,0.41-0.337,0.732-0.747,0.732C201.814,467.204,201.476,466.881,201.476,466.471z M201.666,475.29v-7.074h1.099v7.074H201.666z
				"/>
			<path style="fill:#A3B5C4;" d="M204.582,477.106l0.557-0.82c0.586,0.703,1.289,0.967,2.299,0.967c1.172,0,2.271-0.57,2.271-2.123
				v-1.012c-0.514,0.719-1.377,1.26-2.373,1.26c-1.846,0-3.15-1.377-3.15-3.662c0-2.27,1.289-3.676,3.15-3.676
				c0.951,0,1.801,0.469,2.373,1.244v-1.068h1.098v6.869c0,2.344-1.641,3.076-3.369,3.076
				C206.236,478.161,205.416,477.926,204.582,477.106z M209.708,473.254v-3.092c-0.381-0.615-1.23-1.143-2.109-1.143
				c-1.422,0-2.271,1.129-2.271,2.695c0,1.553,0.849,2.695,2.271,2.695C208.478,474.411,209.328,473.87,209.708,473.254z"/>
			<path style="fill:#A3B5C4;" d="M217.413,475.29v-4.629c0-1.244-0.63-1.641-1.582-1.641c-0.864,0-1.685,0.527-2.095,1.1v5.17
				h-1.099v-7.074h1.099v1.025c0.498-0.586,1.465-1.201,2.519-1.201c1.48,0,2.256,0.746,2.256,2.285v4.965H217.413z"/>
			<path style="fill:#A3B5C4;" d="M219.931,471.745c0-2.051,1.465-3.705,3.486-3.705c2.139,0,3.398,1.67,3.398,3.793v0.279h-5.727
				c0.088,1.332,1.025,2.445,2.549,2.445c0.805,0,1.625-0.322,2.182-0.893l0.527,0.717c-0.703,0.703-1.654,1.084-2.813,1.084
				C221.441,475.465,219.931,473.957,219.931,471.745z M223.404,468.948c-1.51,0-2.256,1.273-2.314,2.357h4.643
				C225.718,470.25,225.015,468.948,223.404,468.948z"/>
			<path style="fill:#A3B5C4;" d="M233.349,475.29v-1.055c-0.527,0.719-1.391,1.23-2.388,1.23c-1.845,0-3.149-1.406-3.149-3.705
				c0-2.256,1.289-3.721,3.149-3.721c0.952,0,1.817,0.469,2.388,1.244v-3.764h1.099v9.77H233.349z M233.349,473.372v-3.209
				c-0.396-0.615-1.244-1.143-2.123-1.143c-1.422,0-2.271,1.172-2.271,2.74c0,1.566,0.85,2.725,2.271,2.725
				C232.105,474.485,232.954,473.987,233.349,473.372z"/>
			<path style="fill:#A3B5C4;" d="M239.691,475.29v-9.77h1.1v3.764c0.57-0.775,1.42-1.244,2.387-1.244
				c1.846,0,3.15,1.465,3.15,3.721c0,2.299-1.305,3.705-3.15,3.705c-0.996,0-1.859-0.512-2.387-1.23v1.055H239.691z M242.9,474.485
				c1.436,0,2.285-1.158,2.285-2.725c0-1.568-0.85-2.74-2.285-2.74c-0.865,0-1.729,0.527-2.109,1.143v3.209
				C241.171,473.987,242.035,474.485,242.9,474.485z"/>
			<path style="fill:#A3B5C4;" d="M247.528,477.063c0.161,0.072,0.425,0.117,0.601,0.117c0.483,0,0.806-0.162,1.055-0.748
				l0.469-1.068l-2.959-7.148h1.186l2.358,5.801l2.344-5.801h1.201l-3.545,8.51c-0.425,1.025-1.143,1.422-2.08,1.436
				c-0.234,0-0.601-0.043-0.806-0.104L247.528,477.063z"/>
		</g>
	</g>
</g>
</svg>
